<mxfile host="app.diagrams.net" modified="2023-11-21T15:37:56.153Z" agent="Mozilla/5.0 (Windows NT 10.0; Win64; x64) AppleWebKit/537.36 (KHTML, like Gecko) Chrome/119.0.0.0 Safari/537.36 Edg/119.0.0.0" etag="c5ThMp_hP2DhbO4WPw44" version="22.1.3" type="device" pages="2">
  <diagram name="Страница — 1" id="o3sYmgAIau1fM3dsohi6">
    <mxGraphModel dx="1624" dy="840" grid="1" gridSize="10" guides="1" tooltips="1" connect="1" arrows="1" fold="1" page="1" pageScale="1" pageWidth="3300" pageHeight="2339" math="0" shadow="0">
      <root>
        <mxCell id="0" />
        <mxCell id="1" parent="0" />
        <mxCell id="JfUIkWPt-qQz9HvaRLv--27" value="" style="shape=image;imageAspect=0;aspect=fixed;verticalLabelPosition=bottom;verticalAlign=top;image=data:image/png,iVBORw0KGgoAAAANSUhEUgAAA5AAAALoCAYAAAAOSho8AAAAAXNSR0IArs4c6QAACiF0RVh0bXhmaWxlACUzQ214ZmlsZSUyMGhvc3QlM0QlMjJhcHAuZGlhZ3JhbXMubmV0JTIyJTIwbW9kaWZpZWQlM0QlMjIyMDIzLTExLTIxVDE1JTNBMzYlM0EzMy44MzlaJTIyJTIwYWdlbnQlM0QlMjJNb3ppbGxhJTJGNS4wJTIwKFdpbmRvd3MlMjBOVCUyMDEwLjAlM0IlMjBXaW42NCUzQiUyMHg2NCklMjBBcHBsZVdlYktpdCUyRjUzNy4zNiUyMChLSFRNTCUyQyUyMGxpa2UlMjBHZWNrbyklMjBDaHJvbWUlMkYxMTkuMC4wLjAlMjBTYWZhcmklMkY1MzcuMzYlMjBFZGclMkYxMTkuMC4wLjAlMjIlMjBldGFnJTNEJTIySzhBZm9laGlfMEstLWZ0endjMXAlMjIlMjB2ZXJzaW9uJTNEJTIyMjIuMS4zJTIyJTIwdHlwZSUzRCUyMmRldmljZSUyMiUyMHBhZ2VzJTNEJTIyMiUyMiUzRSUzQ2RpYWdyYW0lMjBpZCUzRCUyMlkweTNjS3YtNEEyYUlNSElhMGtpJTIyJTIwbmFtZSUzRCUyMlBhZ2UtMSUyMiUzRTdadGZsNW80Rk1BJTJGRFk4emh5UW8lMkJBakslMkZObXR1c2RoMm4ybGtsRk9FVnlNMWRsUHZ5RVFDU2JUcFMzUjZ0UUhqSmNRd3UlMkZlWEhLVHE0R0dxJTJGMTlIcTZYNHl6Q2lRSE5hRyUyQmdrUUVoQXJaSnZ3ckpheW1CeUt3a2l6eU9TaG1vQlUlMkZ4djdnUzhtcmJPTUtiUmtXU1pRbUoxMDNoUEV0VFBDY05XWmpuMmE1WjdTVkxtbmRkaHdzc0NaN21ZU0pMUDhVUldaWlNwMmZXOGdjY0w1Yjh6b0ElMkYzeXJrbFN2QlpobEcyVTRRSWQ5QXd6ekxTRmxhN1ljNEtlaHhMdVYxZDIlMkJjUFhRc3h5bHBjd0VzTCUyRmdhSnR2cTJhcCUyQmtWZiUyQnNIbTJUU05jMURjTjVPMldNY0ZQNjNCZW5OMVIlMkZWTFprcXdTJTJCZ3ZRb256JTJGcWt0ZmNVN3dYaEJWJTJGYm5IMlFxVCUyRkpWV3FjN2U5RGl0eWp4dVVMOFM3R3JZQTI0TFN3RzBiVlhDc0ZMdzR0QjZ6WUFXS2d4cUpPaXFrQnhNNzJlUVdCZUFCRHFuSk9MME9rYXlJWG4yQlElMkJ6Sk11cEpNSXY0VGFoSGZaZXNwUlVEaERBVTFxVG93MWRYMEwzJTJGT1RUTDlNTkRPUktHT2xUa1clMkJ4U3JNVUY2RGlKRGtTaFVtOFNPblBPV1dGcWR3ckdNWFVqYnZWaVZVY1JjVnRsTXBwcXU5c2V1Z3I5SUM2VUlOOXdSWnN3UmJrTkpxd0k3RnpuNE9INll6WnIybFFYQzQ3ZXVYUk5pZ2hSNVFBZHZTWkhMS2p6U1FPTzdwVnVXeHFVRFpJa2ZRWjBNODVMUzBJUTluJTJGWjF0TUZieUhqTEJKMWtPMldjZUVHajRwY0kzRGxFNUZWZ1hvUTAwTjR5dkJMJTJCVFhHMTJ0YkFTb2JLU0xXWVF6a0V4azVBWiUyQmFTQVEzQUp3UzclMkZSdTlIR0FlbzN0UUdBSG0wTVRFa2JmODJtZiUyRmpEb0I2eDlUQXpmNCUyQnI3eHBYUUtGSlc5TnJhd0FrVGM3OGoweUwlMkZYQlZFRWclMkZiOWJzVWMxakViVGUzN0JEZzl2ZXNicHNMbW9NUFUyT2NOQjFpTmwybmlIcXlpaVdHSXBQUjFoQkcyOEdlekpSTHZzcG9sMUhxS2VjdWNua2tHeU0yc2gxSGNpZWw1ekM3Mm9qZDhueHJrVHVFTDZmZ3B3YzdsNE91Zjd4dTBQbDVrd0Z1VTdDcklFY29uNmF6djU4bk55Zmh1RFJxNzBUVXdRdGlBSkhseTNLY2V0bzV0NEZWNFJUOFRiUmgxT084V2IlMkJjRG9lJTJCNU9SUDdvaXFLb0p2aTZvQjg4aHhtclAzb2ZIb1JzOFRpZlhRMVgxRXRKSVZZNmJMaFdsM1dZbHdWS0VNOTJBUEZjOGN3S1FLdWVwRCUyQlM1d3BnVGdGUTVUSDBnenhYVjZBZXA5Skg2UU1wQnpzeDNSJTJGNU13bm0xZTFKdGZLdHFSNm9iJTJGbktveE5iTTN3MTlLRzhJUXNWYW5UNEZ5Qk5hdnVtMFdZZHBRd3Q4M2J2QWNMTmhITXF0amZYZUVIZW0lMkJGNlZhJTJGS21hRGZLMXZnbTFvVkV3ejglMkI4ZWdrR2o2czBBcmFHVTRuZ2YlMkIzcG0zelgzSkZ1NVVTYk5Vc3VoTVZLR2JSYk92STBtN0ZFTWhyMm5mczAxR0EwaWFoUnJsZDJwRjFuMkZlclpzcHNQOGZLZFRvTU9TSjRXUTY4aThqeWNZNm9WbnJ5ckU1eFB5aUJwN0gza1hNS0R0U1FKc3gwQiUyRm80biUyQk94WGRMcjFOQnFBbTBiZkplTnk5QWVVayUyQmVBdyUyQnZET2ZndUE1ZllxOGlQJTJGZGszVDR4aVNkWmNCWUxCOE5zUnkwRWM5SG81SSUyQnoxQ2o1VHREekpLcDAyZXFDOHF5SjZTMDJVYVpaZU5aUW9VUlA5SVdQWGJzOFdvJTJCTHdBaGQ4NFhybklrT1pSYTVuMXR0RnltMVluNWVMUU1xanAxYTliYmZSc0tGNVkzN1FrTk9oSUJrMTh1NEc0VkNWM3ZDSUoxWU12ZG1HTE5ES215aUg0Z0tZWCUyQnJQOVN3YzRKJTJGMHhCJTJGbjglM0QlM0MlMkZkaWFncmFtJTNFJTNDZGlhZ3JhbSUyMGlkJTNEJTIyc3RtZGhIZ2xlX3NMNEhhakpCakglMjIlMjBuYW1lJTNEJTIyJUQwJUExJUQxJTgyJUQxJTgwJUQwJUIwJUQwJUJEJUQwJUI4JUQxJTg2JUQwJUIwJTIwJUUyJTgwJTk0JTIwMiUyMiUzRW5aS3hEb0l3RUlhZnBudnRFYUtyRlhWeFluQnVhSVVtaFNPbEJ2VHBCUXRpdzBBMGFkTGslMkI3JTJGY1hTOGx3TXZ1WkVWZFhGQXFReGlWSFlFRFlXd1RzNmklMkZCdkx3WkJ0UkQzS3I1U2pOSU5WUE5jSkp1MnVwbWtCMGlNYnBPb1FaVnBYS1hNQ0V0ZGlHMmcxTjJMVVd1VnFBTkJObVNhOWF1c0pUQUVybjRLeDBYb3l0JTJCMmpuazFKTTlxZzJoWkRZZmlGSUNJc0pnMDRRMkpPQmhRZTRSWFNyMmlTWEhWZG0yUDYwV04lMkYzJTJCSCUyQkJ6JTJCT3RxdHh2TllIMzFzcjRieWY0T1pDOEFBJTNEJTNEJTNDJTJGZGlhZ3JhbSUzRSUzQyUyRm14ZmlsZSUzRUrlhgcAACAASURBVHhe7N0NsHVVXT/wzb/JzBDMcRJCraBJI8UXxmkk0wrRXsbGlyB8QyADRSAMMRRBA0VSyUIEfCNFVIxUGpuxIHxJRNN8IRoyE8YSBK0hX2AqzeE/vz2t27r72fuec+/d69xz1v6cmSZ87jlr7/VZa599vnutvfZujRcBAgQIECBAgAABAgQIEJhDYLc53uMtBAgQIECAAAECBAgQIECgiQB5FwcCBAgQIECAAAECBAgQIDBDYLc2QN51lwy51a6y2267BeBWP+5zBAgQGBSI75dFvHyHLULZNnZKwHl6p+RXc7tT6y9Tq+9q9srl2ev//V0iQG63SRx42xX0eQIEhgQESH2DwPYFnKe3bzilEqbWX6ZW3yn15RJ1FSBHUnXgjQSpGAIEdhEQIHUKAtsXcJ7evuGUSphaf5lafafUl0vUVYAcSdWBNxKkYggQECD1AQIFBJynC6BWXOTU+svU6ltx111I1QTIkZgdeCNBKoYAAQFSHyBQQMB5ugBqxUX29ZfXvOY1zYte9KJ1tX7Sk57UvO1tb2v23HPPdf/+vOc9r7ntttvW/va+972veepTn9or9t73vre58cYbdyk73vzc5z63ufDCC4tLd+vb3d9Xv/rVzSmnnLJuPzZ6z1e+8pW2vgceeOC6/Q/Dm266qTnnnHOaI488srniiit2qVuYvvKVr2z//ulPf3rd3/fbb7/mHe94R3Prrbe2XvHfj3rUo9r3fOITn2ie9axnNbGvV111VXPRRRftUvYjH/nIJrzvf//7FzeteQMC5Eit68Q0EqRiCBAQIPUBAgUEnKcLoFZc5FCAvPbaa9cFxm5QTEEmQky8IuSkgJO44jPxyoNhBKtu2YvkzesbwTAPZ9/85jfbMHfQQQethcjY38svv3wtjKX37LXXXm29UoC8/fbb14W8FCDzukfwO/HEE5vzzjtvzSp9/tRTT22e8pSn9FLkZvGG7j7Gv81TziKda9mWADlSSzoxjQSpGAIEBEh9gEABAefpAqgVFzlvgOwLKBFs0itG27ojiMscIPvCYgrFZ5xxRnPxxRe3VTv66KObM888c104Dov07/e73/3a/45Aeccdd6yF7jEDZL6vsU99AbzbPvk+doN9xd159KoJkCOR9n3R9F2VGroSstkh/e4Vmb4Dcp6pBd2pAUNTMbpMUbfu1IBFTwtIXxz59Ie+KRYjNXGRYrpX+fKNzDN9pMhOKXTpBBa5iE4c2/vuu+/aVeY0JejYY49d92/51eLusdj9LkhlxBSt/JVPzer7QRX/FtOQYorSJZdcsrZfffsU5Xb3vYbviKXrjCu8Q33n6XRO3uhcONR/u/28OwKTqPo+n6bhpR+wfefU+Hw6p/X9vVvGCjfNUu76vAGy+90T/eD4449vjjvuuCZCVPquzKdMLnOA7BsN7DZQ/D6J7+Xu1N080B1++OFtgIxprxGgY2ppjCSOGSBTsI2y45VPZ037bASyzOElQI7k2v2iiQOwb/rCrAC51SH97gE579SCPIgOXXXqIxr68uu70jYS8S7FvPCFL2zn16/qFaR0komKHXDAAevuLZhn+kgpV+Uun8AiA2T3uyT64qte9armQQ96UHP++ee39/nkPx6+9a1vtcfhoYceutaHu/13nulJ3e+U7gW4PBymH+T3vve9193Lkr+n7/4bPySWr28vco82CpAbnQvn+UEd9UjHRfx3TMVLgaHv891jpO+cmtssY+BYZNvtxLa2GiCjvS+44IK178tou0MOOWTdNMyh9uzeXxn1jvv1hqZwjumS6hv7n0Yah+4THAqQeZhOATJGKeN+xbjnMepy2WWXtfdAzvt7d9ZAR/rtGtvuuxfV9/6YveT/yhoMkENfmN0rvN0bivMRoL6bjWPT6arzZm5GTrvcd4Vv6MrdIkfEul80Q9MXFhEgh4bnu1ML4kffRiOZG32J9H355V8oV1999bqbxdMXYH4lNvWDtJ2HPvShzbnnntt0r6rm/ST9La7qvfWtb22+9rWvrY2E5n2vO/IQ249X9wb26CPxxX6ve91r7cdv6uPHHHPM2lXECKn5MRFlpRNE1DW+GOOLK35ox1XH7vv7Qm46ycSVs6hjTAuJL+t5po+4+bvMF+KylrrIANk97uN4iAsccXyn6Urp+y2uLPddTQ7H/N/nOZ/k3yl99wJ1A2T8wNl9993b6VHph0j+nqH7iYb2d1nb3n6NJzBvgJy3/3b3LAWFGDXvjuJ37+9KP7Tj/0f/3UqAnOeH/nh60ytp3gDZPWf3/bbtLoSzjBcE8gDZ11/zHrDZABm/gdL3c5SzmQC50T2Q6Vi98sor2917/OMfv8tCPwJkmWN3WwGyO8qVGildiZ51Q/DQj4R81aputYeu8MX7drKT5F80G01fWESAnHdqQTdAbncEMn0hHnHEEetuhk7tHFdk40spAtPBBx+8Fs6i7eLfIsjFiTTvFymcpRWz8m3EZ9K0uq5rPnoRZeQ3g3d98h/D+dWzboDMp9OlAHn22Wc3L3nJS9rQuP/++68LnPn7+wJkvt38CuW8V7vLfCUodRkFFhkg8++vvE/HFNI4RuPYjYUK0nGc/rt7hTyOs3TF+eabb565QEI6tuOHd74wQ2qPvgB51llnNaeffvpasM0v/vQtprCMbWufFicwb4Dsngvn+U6Oc1D60R39PR+BGvp8fi6KH8kpTPaJLGPgWFzL7cyW5g2Q+e+PuCjd/W3Vd1F/Gdsz1Xfot2Dex6NF5r0HMl14TMdBzGaJi3/zjkBuFCC7F/b7gu9OZoOd6bmL2eq2AuSsA+BNb3rThitK9QXIWQ09dIWvL0Au8kbZ/Itmo+kLYwXI7pB+1D9d4Zr3ylB8yXXLmXe56L5R36H7J/v2J31BxY/Qvffee92Py43aLY0eREjtTrHo3kea5tt3vwy3EiBj+sX73//+9qiMsJgCZFztipu244sw/+HdfX83QObvjb/FPsVV6yjHVeXFfPmt0lYWGSDziyiPfvSj1420Rx+NCybpJL3HHnushclugMz7cfygjuOxew9kPmsg/07pmz3SFyBj1D6mQ6WFE+KHRgTQuPjTDbZ5+fPe671KfcS+zhbYzD2Q+blwnnt48+/w7vf7vAGyu65APhun75y7yFlWs3Xre8e8AbJ7wTpdOEszhfoC2azfz91HgixCN6/v0G00+YyPeW6V6obMNDrb/a05z20OXYPuoFX8fSu5YhG2NW5jWwEyLfIxdDLeyghk/uOl+7yZja7w9QXIRTZYfuBtNH1hrAC50dTTzQTIVM48V1hzz3mm2+Qnw7yPpH7TncKapnDmATJGQLrPCYrPRYDMr/DGvqUTePzA7V4BzH98dn26/7s7hTV++MaN2en/pwAZ//shD3nI2pz79KOh7/3dANn3gyT9GOgbrVlkX7at5RNYdIBMx1KMOEboi+/ifMp1HA9xP2S8hkYguwEyvzKcj06mH1lx3H3mM59p75GJkf3uTJShAJmH2DR1MAXIfMn51KobfT8uX8vbozEF5hmB7DsXznN+7At46QLJ0Ofz30ibGYHczGyhMf2mVtZQgNzoOZBDv426YWsoQPbdA7moC17d+nYX8usbYOi+J78o2DcYsNFCU0OP8egbMIlzULo1Kb/vsa98q7CWOXK3FSBjl7r3muUdfegeyHQ/3FDAzH8o5NXe6ArfsgTIvoDYF4jS6FiqX9+XyWauyOT39Wz1HsjuF9xGXW6jANn9cTj0gy21c4xy5F8ceb2vueaadaPYqZ75KEj6AbrVEch00SIPvPElmKawxlXguNcyriqmldXiMxFgU1hMP6bj733vn+cZULOm3+UXUNwDWeYLcVlLXXSAjL4WIS6WXn/yk5/cLuAQ3/XxIzfuh4x/Txf4tnoPZH7VPq62598pQ1fs031l3VH69J2zzz77rD2nbOj8IkAuay8vv1/zBMg0ipFPo54VIIdCZ5olM3RRMO/z81yUjX1L0/7SRcg4Vy1igZXyrbN8W+jrL8u3l+Pt0dTqO57cNEvadoDssuVfglsZgdzoytpGV/iWJUD2XVnv1qn7w2noRLDVANl3AuxelekLupu5qjlvgEyjA7FPr3zlK5vTTjttbXW6PEDm9zPm/SafBp1WezzwwAPXFh1IPyi7obk7pWSjeyD7+nA+De76669vRyDz+8FSgIzgGPsYrzTq0ff+PEBuNAqdpuJ179scumpX+msr7Wv3CmDfqnDdfexeXMr3NS40RX+I0atu2fMsTb/Rhau0nXmnsA+9b9ZU4u6V19wkd8svqnVHnvOrtfnfulPTFh0g02h6BMV8NclY+fjOO+9sZwCkPt03jag7/Wme77Lud0r3e3FoBDIfwYyLQMk07Vf6vsjPERE0+1brK308KX9nBeYNkJu9B3LWtLnubRqh0D1GNhsg03l+Jx88v7OtWX7rUwtUU6tv+R5U9xYGA+RGQ88xLai7wEhiyq/ujnkP5KwrfPEjYtb9kyWbMh14m5m+kI949f0gn+dHV6pT3yjArKkFfauw5ie1KHtoKeeNTnb5j/sIAyeffHJ7skz3K6UpGumH9Q033NBuJ26qjmc65j+e8x/i8e9HHXVUE6ttxY+/eOXTW2etwpqu0s4agRgaCczva8kDZATbmOcf9YpRyTRtrnsfTH6MdO+RiL91fzDPM32kZJ8euigzdMEjucbn8tCR6jY0PWXWCmt9dcwXIOq78JH6ze233977XKg8ZMZx0H1fqmP3MRH55/Jne+UXjtJFk9QP0rGSj2B3V+ntLsDU/UG66AA59OO07wJZvLcb6PueA9m3uEE+6yFGPOOVL6yQZrHE92O+smVfuO8LslFe98Ljqj0rtvQxPqXy5w2Q3YAX/7vvHt44v0V/zb/3c890ITNue4j/zu8Bnvc5kGnaYN85d6jPT6lNS9Z1aoFqavUt2XemUPZggOwb8eheMev+yOl+ZisjkN3RuTwgda+09c1r7gtFi2hIB97WlWeN9Gy9ZJ/crsA8o6XpZv84duOeue4S9lsNkPOOIHbDTlyQiB976cJFWgGua5FCYvd96Xsuv/Axa8pw7hThKV84YFbo6rtPr3tM7ESA3G7f8XkCyybgPL1sLbLc+zO1/jK1+i5371v+vRsMkH1XlfumlnXvc8xvsh26BzKNPMUI5UY3Iye+WdNa02ILaYpjGtHYzA/Q7TaVA2/rggLk1u1Kf3IoQHbbbNYCV5sZTd9KnYauzvctM94tf6tTWPNy8vrFv+cj90P3T200Y2IZRiC30g4+Q2CZBZynl7l1lm/fptZfplbf5etxq7VHGwbI1arKzu6tA29n/W29jMC8AXLWAlcbBcjuPZCbXXFuaIRv3gtI2w2QfY+JyacoDwXIjaakhUk+rd0IZJn+rdRpCThPT6u9t1vbqfWXqdV3u/1j6p8XIEfqAQ68kSAVs1QCQwGyG9pmLXBVagSyO60+x1tEgOyb6t8dne2r+9BU/bT/XXcBcqkOCzuzogLO0yvacDu021PrL1Or7w51q2o2K0CO1JQOvJEgFbNUAvPcAxn3HHYXSJknRG130atZj50pHSCHFrDobrdvgZ38Ycx9Dd4d1RQgl+qwsDMrKuA8vaINt0O7PbX+MrX67lC3qmazAuRITenAGwlSMUsl0BfyuquwzlrCPla/HXsEcmja6qJGIDe6L7vvsT2xX7Fa49Dqxd3Q2fUSIJfqsLAzKyrgPL2iDbdDuz21/jK1+u5Qt6pmswLkSE2ZDrz0eIG04FA8biIW9Uk/INPm5l04Zugh3d3dzp+Rlv9t6Mf9PIuLbIUm34+hfcrLTT+2Y9XMeFZW/uDloUeIbDRik57BmD93MS3mNJXl+/MwElaxxHz0wZNOOqkZWpF0qK3zx6jk70n35827wFXfKOVQ2bGdKL+7mmm+/b4ps917J/tGIPv65Lz3QHZd+5b1Ty553dJ+pUW+uvd8pn7ZfUakeyC38g3kMwSGBfxA1js2IzC1/jK1+m6mL3jvrgIC5Ei9oi9AxuMMhkYdag2Q3R/5++67b3PKKacMKucBMj2nMd48r08qOJXz7W9/u3nCE56wts30LMYvfOELzWGHHbbhvozUFXa8mKEA+dKXvnSX5zPu+M7agbkEjEDOxeRNBDYU8ANZB9mMwNT6y9Tqu5m+4L0CZLE+kA68mFoXrxhN+/znP99OWeubttZ3j1ga0UgP4Y6RiniuZbzS41HyUYr8Yd3bGYHsPgQ8H/nIR3ryfYjRwYc+9KHNueee2+SPd0n7EfucHtESIyzHHHNMc+SRRzZXXHFFW580KhP/Hf+ej0C+4hWvaE444YQm6h91fOADH9gccMABa+Evf4h8N0DGPsXDms8///wmnk8YXjECF69URnfkq1uv3XfffW0/c4v8sTR5nbujTXfcccfaSN9Qe0U/ecc73tHEti699NK2njFKGGax//loabw39YOuW9xLd9FFF631kVj9MznHPr72ta9t++ELXvCC5nWve137/9NzG4sdDAoeXWBRAXL0HVcgAQIEVljgrrvuWuG939yuC5Cb85r6u41AjtQDNjrwZgXI2IUICIceemgbkvIVGuNZmTfddFM7ktm9Hy1/X4SPvtG+eaaw5uVcffXVbYiJcHPrrbe2/z+m4cbr+OOPb4477rj2vyPwxUPjY7/ybeT70Z3OGp/r1uPggw/eJUBefPHFzc0337w2nTWCZN9+5NNUUwh+/OMf30TgSlM1U9gMw/BJQTY9vL37/L6o17HHHrtLO4RL/miGvE3z/47tvfGNb2z39373u1/brum5pF3n+FsE1GRwyy23tP876pu2FQ5pgZr999+/tYrQmIJimEb75O0W2y01RXmkw0UxmxRYxIl9EdvYZLW9ncCoAvr4qJzVFza1/jK1+lbfgQtXUIAcCXhWgEyjRPnm0ghiHpbuf//7r1tw5JprrlkLkN2FQ/JRzLPPPnswQKaRwHzbaQQthZIITjGFNL+nLb+PMx+16i7wkU+ZvOSSS9b2Y2hUNJ+2Ok+AjP1OISqsYkQxjTCmOuVlxtThFBZT6M33K3foTvfMVxNNo4QR0Lqjdune1Je85CXrwlpeXgTw7vMA032deUiMNs+t8na97LLLmmuvvbYNibEPaZ/OO++81iQF4Xy7AuRIB/USFbOIE/sitrFEpHZlggL6+AQbfRtVnlp/mVp9t9E1fLRpGgFypG4wK0Cm0be0uTwkdMNEHga6ATJNZUzlpJA3FJBmjUB2R8mi3DzM5NM288U+8gVu5gmQ3QVCYjv56NusRXRin2LEM6Z3xqt7X2UeIOPvESKPOOKItVHMPGDnU0Ljvckw/juvVx4g42/5FNz43zH1NbaRh85ugBxqr3x0N4LhRgGyewEgLjxEoDzttNPakeAI/gLkSAfykhaziBP7IraxpLx2ayIC+vhEGnqkak6tv0ytviN1k8kWI0CO1PTbCZCbGYFMUzm7I2JbvQdyoxHIPKR1V0vNQ1M+Itk3AtmdNrrZEcgYoYsw9/73v79trZhGm09fjX/Ly4yAFfsXwfDOO+9cW8goRiUPP/zwddNKuyOQQwEyphLnI4HzjkAOtVd3dHOjAJmmMOddtbv4kAA50oG8pMUs4sS+iG0sKa/dmoiAPj6Rhh6pmlPrL1Or70jdZLLFCJAjNf12AmTswlbugcwfpL7RFNY8+MS2uo8tGLoHMh/9TKuZ5vdApnsFZ90D2Q2QaQRwMyOQ6f7PffbZZ20651CgStNiY8GetAhOCmjdAJnfs7jRCGQeINPjGA488MBdVtnd6B7IvL3y+zo3GoHM74GM0JzaKk1hNQI50gG85MUs4sS+iG0sObPdq1xAH6+8gUeu3tT6y9TqO3J3mVxxAuRITb6dAJnue+yuwppG3iJc9q3C2rf6aXdq56wprBFKhlZh7f57dwprWq10aDXY/PmLsa/5irLBni9q053CmkJ1/P8Igd37BLvN1h2Ry8Na97P5tNyXvexlzXXXXbduFdhYxCfZpxHE/Bl+Ud+jjjqqufLKK9swm//t5JNPbstLi/jkU3fz9pp3BDLvA1HnZL3HHnusLT7UncKaRpX7nok5UndXzIIFFnFiX8Q2FsxmcwTWCejjOsRmBKbWX6ZW3830Be/dVUCAHKlXTOnA2+wzGscgHnrY+xhlj1lGd6GjMctW1nQFFvH9sohtTLcF1XwZBPTxZWiF1dmHqfWXqdV3dXricu6pADlSu0zpwFt0gEyjeGnK7EhNNkox3VHafJRxlA0ohMD/rnZW+nlk6Tus+5zU1AD5M1H7FsWK96WZEnmjxUWV9Gig/N7l/Bmz6f1x/MSjfmKl5fTM2Lys9BxUzzJ1WGxFYErn6a34+Mx6gan1l6nVV3/fnoAAuT2/tU878EaCVAwBArsILOL7pRsg0/NLY2dSYIxp7DFluvson3hP9zm18W/p3un47wMOOGDd6sl9z8ftVrxvO7oHga0KLOI42uq++dzyCUytv0ytvsvX41ZrjwTIkdrLgTcSpGIIEFi6ABk7lN9PfcMNN6x7fE3a4e5q0BEAYzQx7nGOz6f7i+P9AqSOvmgB5+lFi6/29qbWX6ZW39XunTu/9wLkSG3gwBsJUjEECCxlgMynrndXB44d7huBjNAYr1jcKz3LNUYwBUidfCcEnKd3Qn11tzm1/jK1+q5uz1yOPRcgR2oHB95IkIohQGAlAmRaNTrf2bRSc/xb/uifuPcx7oW86qqr2nscU4C86KKL1tU1v88y/mAKq4NhTAHn6TE16y9rav1lavWtvweXraEAOZKvA28kSMUQILCUATJfYbg7Atm3+nDfQjvdR/5ERVOg7Gt2AdLBMKaA8/SYmvWXNbX+MrX61t+Dy9ZQgBzJ14E3EqRiCBBYygA56x7ImKJ62223tc9GjVVS++5xzO+RdA+kjr5oAefpRYuv9vam1l+mVt/V7p07v/cC5Eht4MAbCVIxBAgsXYDc7CqsMdL41Kc+tclXco1K5SE0/mYEUmdfpIDz9CK1V39bU+svU6vv6vfQna2BADmSvwNvJEjFECCwFAHy05/+9Lr96D4H8sQTT2zOO++8Jn+2YwTEyy+/vHnOc57TvOUtb2niM/e///3XysmDaNwPKUDq7IsUcJ5epPbqb2tq/WVq9V39HrqzNRAgR/J34I0EqRgCBHY0QOInUKuA83StLVumXlPrL1Orb5leM51SBciR2tqBNxKkYggQECD1AQIFBJynC6BWXOTU+svU6pu67mc/+9nmGc94RvOFL3yhef3rX98cf/zxG/bqz3/+883LX/7y5iMf+Ujzve99r3n4wx/ePP/5z28OO+yw5n9DVcVHxf9VTYAcqZmneuCNxKcYAgQ2EFjE98sitqGRCeykgD6+k/qrt+2p9Zep1Tf1yLj1Ih5B9YM/+IPNQx7ykOYd73hHc+9737u3w8aK4yeddFLz3e9+t3nc4x7X3O1ud2uD5Ne//vXmZS97WXPyySdPJkQKkCN9p031wBuJTzEECAiQ+gCBogLO00V5qyt8av1lavWNDnv77bc38UzjCIRxv/5f/dVfNZdccknzS7/0S7v05wiJz372s5svf/nLzZvf/Obm0Y9+dPueL33pS81RRx3VfOMb32g/GyOSU3gJkCO18hQPvJHoFEOAwAyBRXy/LGIbGprATgro4zupv3rbnlp/mVp9o0d+4AMfaI4++ujmyCOPbB7zmMe0/x0hMUYlu9NR03v7/n7ppZe2j64644wzmlNOOWX1OvsW9liA3AJa30emeOCNRKcYAgQESH2AQHEB5+nixFVtYGr9ZWr1veuuu9qw9/a3v725+OKLm3j81NOe9rTm29/+dvOud72r+amf+ql1/TmmqJ555pnNe97znvZ+x/x13XXXtfdRHnDAAe0K5Pe4xz2qOhaGck/TNLvt1jTNXYHptTWBqR14W1PyKQIEtiKwiO+XRWxjK3X3GQJjCejjY0lOo5yp9Zep1feLX/xi8/SnP7255z3v2bz73e9u9tprr+ass85qRxH7FtOJEcZ4/FTcI5k/viqOhq985Svts4/j3skYjbzPfe5T/UFiBHKkJp7agTcSm2IIEJhDYBHfL4vYxhxV9RYCxQT08WK0VRY8tf4ytfpedNFF7bTTGFU8/fTT2z780Y9+tDniiCOaBz/4wesW04lRybjPMVZg7QuQcf9jTG299dZbd3n+cZUHRzv0GGOPRiC33b5TO/C2DaYAAgTmFujeizH3B72RAAECBLYsMKWZeVP6HXvnnXe29zt+8pOfbBe+eexjH9v2kfTvH/rQh9pprU984hPbf//mN7/Z3id5/fXX9wbI9PdbbrlFgNzy0TbRD07pwJtoE6s2gR0TWMT3yyK2sWOANkzgf6+YTykQaPTtCUztO3FK9U0jjY94xCOat73tbc2ee+651lnOP//85oQTTmie85znNG94wxvaR3UYgdz1WDICub3vl7VPT+nAG4lMMQQIzCmwiO+XRWxjzup6G4EiAvp4EdZqC51af5lSfdOCOBt13gc96EHNO9/5ziZCZrzcA7leS4Ac6asvHXjpRtpPf/rT60p+7nOf21x44YVrN9p2//6kJz1pl6sg8cDSuCk3veJBp33LA8f7zjnnnHbYPF7xmW75++2337ph96Gy0zD8FVdcsYtM3z523xTlvuhFL+od4p+3PrF8crzSPsfVoVNPPbX9tzBMr0984hPtzc4xzSCe3zP0mvd9sX8xt717NWqkLqIYAlsWWMSJfRHb2DKADxIYQUAfHwFxQkVMrb9Mpb4xzTQWz4nnOf7yL/9yc/e7332XXv25z32u+djHPrbu/sj4nf3iF7+4/a39lKc8Zd1nrMJqFdYtfzV2A2QEntTBUiiLh5XGMsER8Pr+ftBBB60FxAhRl19++dpc6lRGrBKVh6jY4b4AmZc/K+SlsvPtx2cieJ144onNeeedt8uKU31QSIYcjAAAIABJREFUUc7xxx/f/imWMs7DbjdYDm0zPpsHyFjxKuobV34EyC13Tx9ccYFFnNgXsY0Vbwa7v+IC+viKN+CCd39q/WUq9U3PbDz88MPXpqh2u1Z65uP+++/fPtJjn332aT74wQ+2C+z0PQcy7qOMfx8a6Flw113I5oxAjsS8UYCMTUQA2nfffZvosN0AmULTTTfdtDZKGTf3xspQ+VLBMbrZ9++bCZAbhcXuaF43QM4ayYu/X3DBBU0E5QiBaWRwM9tMgTj+/957792ueBV28wTI2H5s+8Ybb2yDendENv3bzTffvMv7YgTTCORIB4NiRhdYxIl9EdsYHUaBBDYhoI9vAstb21Ump3TP7BTq+53vfKd5/vOf31x22WXt7+1nPvOZvT399ttvb38n/s3f/M3a+7761a+274+VVmMF17Twzpe+9KV2hdZYiTWC5MMf/vBJHD0C5EjNvFGATNNaY1RwnhHIoSAzFMQ2EyA3M6q4mffmI4cx8hiB75BDDmlHYTdbTl+TzAqQ8ZkI5oceemg78hnvv+2229rpqDfccMPaVNf0vjRCm7/v6quvNoV1pONBMeMKLOLEvohtjKuiNAKbE9DHN+c19XdPrb9Mob6f/exnm2c84xnNj/zIj6yNLA718xgIiVuynva0pzVvectbmnvc4x7Ne97znuakk05qP/K4xz2uXWDnIx/5SPP1r3+9ifsqTz755PR4i+oPHwFypCaedQ9kGtaedY9kGoEbuhcvjWR2p4fOugcy3b+Yh6mN7huM/dhM8EvTV4877rh21DRCbZp+Omvkcp4miHrHFZ/uKx9VzEdQ832Pz6S/xb2hySrqn+9b/M09kPO0hvcsWmARJ/ZFbGPRbrZHIBfQx/WHzQhMrb9Mob4pFL7whS9cu11qqE+ksBl/zxfT+fCHP9yce+65zTXXXNN873vfa0ccY1TzsMMOm0x4DBMBcjPfJhu8d9YU1vTRfDRyaHRuo6mU8wbIoXsgNxMKN/veNH001TUPd5u5l7KPedYIZDcY5tN9uwEyX5go/pYW64lpCQLkrvpDFz3yRZXy6cN5CakPnH322e0/d+/f7WvXeQ/J7jaH7j2YZxtDFzniZJOmlg/1y3RhI9U1XZjJ9y8topUuzOTHSr7f6eQW78s/s4gT+6yLYJtp72SQ1yfq1F18oLtoV9cwLbyVW0Q5qU+mMuP4j+N61vvy6et9/TT9/dhjj113D3f+vdt3MSvf7tDxkr5n7ne/+/UudNa3MMO8x4L3zSewiONovj3xrlUQmFp/mVp9V6EPLvM+CpAjtc5WA2RsvrtgztC9jvm/xzzruKcyRiI3M4V1aBpslJ1CXv4DeN7g1/cjPf3oOuaYY9oHsHYX6enb5lBzzAqQ8cNv3hHIoZDoHsh+/e5Fj3hXtx/NutiQ99HUv/rKnfdw7I54D21/KIDk20lB7973vve6BwCn8NMNJemz+Sh7/FveR/O6HXzwwWv9P46FWGgqjdR3R8rjHuJ4BlW88mNmESf2jb7DNtveQ99r+f3fyShNO4/PdBfbiv/9qle9qrnXve61brXl7r9HgJznffE9sdF32lBf6AbI/GJId4GzWf267+9pu3Exobu637zHhPfNFljEcTR7L7xjVQSm1l+mVt9V6YfLup8C5Egts50A2RfqZq3Cmo+MxH9fe+217f1+3/rWt3oX6cmrObQianeF11mhIJU59IMp36+4vzB/vMdGq8r2NcmsABmf2co9kLmzKazzB8gUENLo3Ky+0tdH8lAZI5TpgshWDsm+YyhdoIjy+lYvzgNL3LcQ+5MWfkr3xj70oQ9tvva1r+0yctq3j3l9uhc08mMhf2DxrNWIk+8iTuyzvsPy75yttHfyThdw3vSmN/WO7ubbSRd1dt999+bJT37yWriK9rnvfe/bfPzjH2/bLB27s943T4CMC1FRTt5nNgqQUa/cI40wDs0Cmef7Mu8jWzkefKZfYBHHEft6BKbWX6ZW33p66s7URIAcyX3Wj69ZYavv+YkbPTcxn/qVP+NxaPpUbD+fItUtu2+UZd5VWPtGl9KPqpiql66qz7PNoeaYFSDT/YzdVVjj37vT3fJpbLmdEcj5A+RWRqS6bdg3HXurh2Pfj/JUfoSweHWnz+bb2uoU1ryM7gWTfKR76BgZChNd30Wc2MccgRyqb/LKH23UHXHLP5uCYR7k04WBONajTfMAOet98wbIs846qzn99NPXVsKeFSBnPaop7ydDbT7GveJbPX6m8rlFHEdTsZxCPafWX6ZW3yn04ZJ1FCBH0nXgjQSpmKUTmGfhp6F7IPMLE3lAj5HyvkfSbLXy3XCaHikT00FjJKh0gOxebOmOOA4Fqr4LI+lCS34/4CK+X2bdA7nRfZyp3dJ7Zl2M2ShA9i1sFU7p0UARKmOBrngeV744VgT2We8bugcy7Xe+7VjmPc3siD6URsj72qwvQMZ+5q90D+nQLBEBcqtH//yfW8RxNP/eeOeyC0ytv0ytvsve/5Z9/wTIkVrIgTcSpGKWTmCehZ9mTWmMSuX38MbqZenH+Xan6+WPYomyuvdHllxEJ+rVd/9aN0D1BcjufncbPv/MAx7wgOLPIxsagexr21ntvZ0RyL4Aed555zUveclL2ntH0/3fj370o3cJkLPeN+8IZIxq7rHHHu19qDHSGYF1owA561FN84xAzjJbui+GFdwh5+kVbLQd3OWp9Zep1XcHu1YVmxYgR2pGB95IkIpZOoG+KXfde3RnBYqoVBqliWmG1113XfvDfDsLhgzdRzvPaGgXeatTWPumnqdQmS/qlI9Ixt8jmAzdl5n2LTeNBahKP9B6oymsm23vjaZppoWCNnMPZNzfHe+P+1Gj75x55pktU3cEctb7NhMgY/p7CnX77LPP2iJgQ9Pp0+I87oFcuq+wtR1ynl7etlnGPZtaf5lafZexz63SPgmQI7WWA28kSMUsncAYq7CmSqWVTbuPa9hKpecZWYxy53nfVgLkRqF5aBXWWDV5aH+6o5Z56IxVSHcyQG7lnte+1aXzha7mXYU13UsaC3HF5/ueaZsvgLXR+zYbIFP/iUe1pMetdNvPKqxbOXp35jPO0zvjvqpbnVp/mVp9V7VfLst+C5AjtYQDbyRIxSydwNBoUj76FjvdfQ5o/Fu+SFEamYv3HXLIIesWtdnsgjpD92X2PQuy+3iNvnsv5w2Q3XvkYmXh/JUH43wkNN1jN2u/8+cm7vQ9kN1VRLfS3t3nQHbbZ57nQKYAme4dTI/96Jvqmq9E3fe+oXsgUz/NRzW7j5tJ5W31OZBRdixkFu0aQbh7j6TnQJb/6nOeLm9c0xam1l+mVt+a+upO1EWAHEndgTcSpGIIENhFYBHfL4vYhqYlsJMC+vhO6q/etqfWX6ZW39Xrkcu1xwLkSO2x0f1DsYn82WYjbbItJr8K33323NB20lS5WHAi7tuJEaG4Kr7ZVTHTapHdR4B0H5uRruSPWe9lKytv3xihiBG2G2+8sfc5d8u27/Zn+QUWcWJfxDaWX9oe1iygj9fcuuPXbWr9ZWr1Hb/HTKtEAXKk9t6pAJnv/rzLwPctsZ+vkPmoRz1qLpUo51WvelUT92elB7DHB4f+fa5CV/RNQwEyqhP3vXkR2I7AIk7si9jGdgx8lsB2BfTx7QpO6/NT6y9Tq++0evP4tRUgRzLdbIBMo3ex+bQoRDyCIP/3dA9UWk4+Vq+89NJL25GtdC9RCo2veMUrmhNOOKG9ryZ9Lv477rVJr3SPTXcEMt4Tf7viiivae9Z+67d+q/nUpz7VxP1EsU/5M/XyRy6kcnbffffmyU9+8tqKmjECd9/73rf5+Mc/vhYs83uh0v1G+++//9pqlLFIRby6zw3s2/94XyovyorAG/uQHhSf36PUdQrDc889t61n/O2cc85pzYaecZffhxb1Tdv467/+67X7+2699dY15yjngAMOaB72sIc18e/x2s5KoyN1T8WsuMAiTuyL2MaKN4PdX3EBfXzFG3DBuz+1/jK1+i64O1W3OQFypCbdTIDMnxt38MEHr4WoeM5ZPo00QlK8jjnmmPY9t9xySxv08pUE4+9pKft8Cmt3tcF8RcdYpTAWphiawhrL0PftR3ckLQXICGWxvH6EqxjJTNNi43/HyGQEtAhqse8xnTUtahL/FvWKV4TV2K9YlCT2LV5pWfwIiPn+33DDDWt/S0vmH3jgge32u++L6bkRFPfee+92qu6xxx7bjgjGPsSz3brb6i7Bnz+rL63uGPXI2y1t96abblq3MMxIXUsxBJpFnNgXsQ1NSWAnBfTxndRfvW1Prb9Mrb6r1yOXa48FyJHaoxsguyvsxWbSKNfQQ8Zf//rXNy996UvbZ5zl00i7S+hHWWnVyvxh2hvdA5lvc1aAjG2n+/giKB1//PHtA7y7U1tTmfHeCG4pLEYwO+KII9aCbfceyDTdMwXIeMZdhLqNptHm+999ftxQeV2nbiBNgS/fbowa5mG3u9Jj/rd82mqpe1xH6p6KWXGBRZzYF7GNFW8Gu7/iAvr4ijfggnd/av1lavVdcHeqbnMC5EhNupkRyHyULE0RzUcR0+MQ0tTW2MUYqcsfvD5PgOwuN5/KmydARmBLQTA9+Dufvhr7lE+FjdHTCJmXXHJJs++++zZ5sE1TcGOKbHpFmE4BMtWrGyCH9j8eLxCvNJ20GyDz7aTg3g20eeDrBsh82mx8Pk25jXCZHikQFgLkSAePYmYKLOLEvohtzKyoNxAoKKCPF8StsOip9Zep1bfCLrvQKgmQI3FvJkAOjUCmKZ5pl4ZG1vIRyaERyO600c2OQKapqBGe4n7GvoVguqOCMY31uuuua0dQ45VC8WWXXdZce+21a/dUduvVFyC7I4GbGYHMg3ay7C4wtFGAzENi3j36HvSeRjGNQI50ICmmV2ARJ/ZFbEPzEthJAX18J/VXb9tT6y9Tq+/q9cjl2mMBcqT22EyAHLoHsm+ULHYv3QMZ/x33Cub3AOZBLZ/CmgfINAKYPj/PCGS8N79PsG9l1m4ojZG7NMoZ+9gXINPDwOOexY1GIPMA2d3/ee+BzB88ngftmFI7FCC790DG+y6//PL2/s0wNQI50gGjmE0J/O8X9aY+480ECBAgsD2Bu+66a3sFrNCnBcgVaqwl2FUBcqRG2EyAjE0OrcKar1bancK61157NWm10rSiaj6yFuWm6ZcRNE877bS1lVVPPvnkdpvpPsXuIjppUZjrr7++DUkRGPse95Fz5X/Pw1qMVvbtV1oh9qijjmquvPLKdYv4xEql+VTStEJrWhk23/8UAGPBnVgl9TGPeUxz55139q7Cmu47nXcEMuqdAn6sdpumr/Z55CF06JmYI3UvxUxcYBEn9kVsY+LNqPo7LKCP73ADrNjmp9ZfplbfFeuOS7e7AuRITVLywEtTVvumZo60+73FpPssl/k5hn0LDJU0UTaBnRAo+f2S6rOIbeyEnW0S0Mf1ga0ITO07cWr13Uqf8Jn/ExAgR+oNJQ+8RQfItL2gSc+CHIlplGLy0dsoMH+G4ygbUAiBJRMo+f3ix/WSNbbdKSawiOOo2M4reOECU+svU6vvwjtUZRsUIEdqUAfeSJCKIUBgF4FFfL8sYhualsBOCujjO6m/etueWn+ZWn1Xr0cu1x4LkCO1hwNvJEjFECAgQOoDBAoIOE8XQK24yKn1l6nVt+Kuu5CqCZAjMTvwRoJUDAECAqQ+QKCAgPN0AdSKi5xaf5lafSvuugupmgA5ErMDbyRIxRAgIEDqAwQKCDhPF0CtuMip9Zep1bfirruQqgmQIzE78EaCVAwBAjsaIONxOvE4oHjsTv5Ki1Wlv5966qlNPH4nvfLH2uSPwkl/j0fuxOOH4jE88fcTTzyxfZRP9xmzfas/5483ivLSY4zy/YvFteLRPukxRH37kN7/6le/uuk+Gzb+lhYQi8cHxSvf5/jfsR9vfOMb17YR/5Y/fqjvebm68/IIOE8vT1uswp5Mrb9Mrb6r0AeXeR8FyJFax4E3EqRiCBBYigCZB8R8JegIVREwZwXIbkCMYBivCy+8cFMBMkLb5ZdfvhY++wJs7N/xxx/fln/AAQc03UcPRRnXXnvtulWlu8+GTeUeeuiha5/vhtIUZPOVnwXI1TlgnadXp62WYU+n1l+mVt9l6GOrvA8C5Eit58AbCVIxBAgsXYCMHUojg4cffviWAmSEsRgdjEcD3XDDDXONQA6NduZl7bnnnm0gveCCC5p4Vm6EvIsvvrgd6UyveQJkPoKaN0D+76mcW265ZS1AC5Crc8A6T69OWy3Dnk6tv0ytvsvQx1Z5HwTIkVrPgTcSpGIIEFi6AJkHue2MQO67777t6N68U1gjKJ5zzjlro49DXSOCXbyi7Ai6hxxyyC7Tazcagdxjjz2aI488sg2g+bTcKDPfh8suu6y56aab2vJTGP7Wt77VHH300c2ZZ565y3RcXXm5BJynl6s9ln1vptZfplbfZe9/y75/AuRILeTAGwlSMQQILEWA7N4DGfcNRkDb6j2QT3rSk9amkG4mQKagFiONfa80ffW4445rA1wEvquuuqqdKjvvCORGATKf6poCZITaCJwHHXRQEyOyAuRqHLTO06vRTsuyl1PrL1Or77L0s1XdDwFypJZz4I0EqRgCBJYiQHbvcUw7NW+A7N4DmY/k3XzzzXNNYZ1nBHLWgj2x37OmsG42QKb7OM8444zmrLPOak4//XQjkCtw3DpPr0AjLdEuTq2/TK2+S9TVVnJXBMiRms2BNxKkYggQWOoAmS+ok0/3nLVITn6vYFRwnlVYh8Jquufx/PPPb+9FjFc+4thdyXVWgIz7Jee9BzKmsKZtxXZuu+225o477hAgV+C4dZ5egUZaol2cWn+ZWn2XqKut5K4IkCM1mwNvJEjFECCw1AEydi4Fp1gQJy1iE/cPxjTXCJV9U1S3MgKZRg/7VmGN1VI3WtAnv+dxngA57yqseYBMn7n99tvXPdpDF15OAefp5WyXZd2rqfWXqdV3WfvdquyXADlSSznwRoJUDAECSx8gU4i86KKL1vY1fzZj37TS/fbbb8NnNKa/X3LJJU1abCcV3n0OZLofc2iKa9p+CrTzBMjY1jzPgcwDZHym+6gP3Xd5BZynl7dtlnHPptZfplbfZexzq7RPAuRIreXAGwlSMQQI7GiAxE+gVgHn6Vpbtky9ptZfplbfMr1mOqUKkCO1tQNvJEjFECAgQOoDBAoIOE8XQK24yKn1l6nVt+Kuu5CqCZAjMTvwRoJUDAECAqQ+QKCAgPN0AdSKi5xaf5lafSvuugupmgA5ErMDbyRIxRAgIEDqAwQKCDhPF0CtuMip9Zep1bfirruQqgmQIzE78EaCVAwBAgKkPkCggIDzdAHUioucWn+ZWn0r7roLqZoAORKzA28kSMUQICBA6gMECgg4TxdArbjIqfWXqdW34q67kKoJkCMxO/BGglQMAQICpD5AoICA83QB1IqLnFp/mVp9K+66C6maADkSswNvJEjFECAgQOoDBAoIOE8XQK24yKn1l6nVt+Kuu5CqrQuQC9mijRAgQIAAAQIECBAgQIDAKgvstlvTNHfdddddq1wJ+06AAAECBAgQIECAAAECBQVMYS2Iq2gCBAgQIECAAAECBAjUJCBA1tSa6kKAAAECBAgQIECAAIGCAgJkQVxFEyBAgAABAgQIECBAoCYBAbKm1lQXAgQIECBAgAABAgQIFBQQIAviKpoAAQIECBAgQIAAAQI1CQiQNbWmuhAgQIAAAQIECBAgQKCggABZEFfRBAgQIECAAAECBAgQqElAgKypNdWFAAECBAgQIECAAAECBQUEyIK4iiZAgAABAgQIECBAgEBNAgJkTa2pLgQIECBAgAABAgQIECgoIEAWxFU0AQIECBAgQIAAAQIEahIQIGtqTXUhQIAAAQIECBAgQIBAQQEBsiCuogkQIECAAAECBAgQIFCTgABZU2uqCwECBAgQIECAAAECBAoKCJAFcRVNgAABAgQIECBAgACBmgQEyJpaU10IECBAgAABAgQIECBQUECALIiraAIECBAgQIAAAQIECNQkIEDW1JrqQoAAAQIECBAgQIAAgYICAmRBXEUTIECAAAECBAgQIECgJgEBsqbWVBcCBAgQIECAAAECBAgUFBAgC+IqmgABAgQIECBAgAABAjUJCJA1taa6ECBAgAABAgQIECBAoKCAAFkQV9EECBAgQIAAAQIECBCoSUCArKk11YUAAQIECBAgQIAAAQIFBQTIgriKJkCAAAECBAgQIECAQE0CAmRNrakuBAgQIECAAAECBAgQKCggQBbEVTQBAgQIECBAgAABAgRqEhAga2pNdSFAgAABAgQIECBAgEBBAQGyIK6iCRAgQIAAAQIECBAgUJOAAFlTa6oLAQIECBAgQIAAAQIECgoIkAVxFU2AAAECBAgQIECAAIGaBATImlpTXQgQIECAAAECBAgQIFBQQIAsiKtoAgQIECBAgAABAgQI1CQgQNbUmupCgAABAgQIECBAgACBggICZEFcRRMgQIAAAQIECBAgQKAmAQGyptZUFwIECBAgQIAAAQIECBQUECAL4iqaAAECBAgQIECAAAECNQkIkDW1proQIECAAAECBAgQIECgoIAAWRBX0QQIECBAgAABAgQIEKhJQICsqTXVhQABAgQIECBAgAABAgUFBMiCuIomQIAAAQIECBAgQIBATQICZE2tqS4ECBAgQIAAAQIECBAoKCBAFsRVNAECBAgQIECAAAECBGoSECBrak11IUCAAAECBAgQIECAQEEBAbIgrqIJECBAgAABAgQIECBQk4AAWVNrqgsBAgQIECBAgAABAgQKCgiQBXEVTYAAAQIECBAgQIAAgZoEBMiaWlNdCBAgQIAAAQIECBAgUFBAgCyIq2gCBAgQIECAAAECBAjUJCBA1tSa6kKAAAECBAgQIECAAIGCAgJkQVxFEyBAgAABAgQIECBAoCYBAbKm1lQXAgQIECBAgAABAgQIFBQQIAviKpoAAQIECBAgQIAAAQI1CQiQNbWmuhAgQIAAAQIECBAgQKCggABZEFfRBAgQIECAAAECBAgQqElAgKypNdWFAAECBAgQIECAAAECBQUEyIK4iiZAgAABAgQIECBAgEBNAgJkTa2pLgQIECBAgAABAgQIECgoIEAWxFU0AQIECBAgQIAAAQIEahIQIGtqTXUhQIAAAQIECBAgQIBAQQEBsiCuogkQIECAAAECBAgQIFCTgABZU2uqCwECBAgQIECAAAECBAoKCJAFcRVNgAABAgQIECBAgACBmgQEyJpaU10IECBAgAABAgQIECBQUECALIiraAIECBAgQIAAAQIECNQkIEDW1JrqQoAAAQIECBAgQIAAgYICAmRBXEUTIECAAAECBAgQIECgJgEBsqbWVBcCBAgQIECAAAECBAgUFBAgC+IqmgABAgQIECBAgAABAjUJCJA1taa6ECBAgAABAgQIECBAoKCAAFkQV9EECBAgQIAAAQIECBCoSUCArKk11YUAAQIECBAgQIAAAQIFBQTIgriKJkCAAAECBAgQIECAQE0CAmRNrakuBAgQIECAAAECBAgQKCggQBbEVTQBAgQIECBAgAABAgRqEhAga2pNdSFAgAABAgQIECBAgEBBAQGyIK6iCRAgQIAAAQIECBAgUJOAAFlTa6oLAQIECBAgQIAAAQIECgoIkAVxFU2AAAECBAgQIECAAIGaBATImlpTXQgQIECAAAECBAgQIFBQQIAsiKtoAgQIECBAgAABAgQI1CQgQNbUmupCgAABAgQIECBAgACBggICZEFcRRMgQIAAAQIECBAgQKAmAQGyptZUFwIECBAgQIAAAQIECBQUECAL4iqaAAECBAgQIECAAAECNQkIkDW1proQIECAAAECBAgQIECgoIAAWRBX0QQIECBAgAABAgQIEKhJQICsqTXVhQABAgQIECBAgAABAgUFBMiCuIomQIAAAQIECBAgQIBATQICZE2tqS4ECBAgQIAAAQIECBAoKCBAFsRVNAECBAgQIECAAAECBGoSECBrak11IUCAAAECBAgQIECAQEEBAbIgrqIJECBAgAABAgQIECBQk4AAWVNrqgsBAgQIECBAgAABAgQKCgiQBXEVTYAAAQIECBAgQIAAgZoEBMiaWlNdCBAgQIAAAQIECBAgUFBAgCyIq2gCBAgQIECAAAECBAjUJCBA1tSa6kKAAAECBAgQIECAAIGCAgJkQVxFEyBAgAABAgQIECBAoCYBAbKm1lQXAgQIECBAgAABAgQIFBQQIAviKpoAAQIECBAgQIAAAQI1CQiQNbWmuhAgQIAAAQIECBAgQKCggABZEFfRBAgQIECAAAECBAgQqElAgKypNdWFAAECBAgQIECAAAECBQUEyIK4iiZAgAABAgQIECBAgEBNAgJkTa2pLgQIECBAgAABAgQIECgoIEAWxFU0AQIECBAgQIAAAQIEahIQIGtqTXUhQIAAAQIECBAgQIBAQQEBsiCuogkQIECAAAECBAgQIFCTgABZU2uqCwECBAgQIECAAAECBAoKCJAFcRVNgAABAgQIECBAgACBmgQEyJpaU10IECBAgAABAgQIECBQUECALIiraAIECBAgQIAAAQIECNQkIEDW1JrqQoAAAQIECBAgQIAAgYICAmRBXEUTIECAAAECBAgQIECgJgEBsqbWVBcCBAgQIECAAAECBAgUFBAgC+IqmgABAgQIECBAgAABAjUJCJA1taa6ECBAgAABAgQIECBAoKCAAFkQV9EECBAgQIAAAQIECBCoSUCArKk11YUAAQIECBAgQIAAAQIFBQTIgriKJkCAAAECBAgQIECAQE0CAmRNrakuBAgQIECAAAECBAgQKCggQBbEVTQBAgQIECBAgADrj2U/AAAgAElEQVQBAgRqEhAga2pNdSFAgAABAgQIECBAgEBBAQGyIK6iCRAgQIAAAQIECBAgUJOAAFlTa6oLAQIECBAgQIAAAQIECgoIkAVxFU2AAAECBAgQIECAAIGaBATImlpTXQgQIECAAAECBAgQIFBQQIAsiKtoAgQIECBAgAABAgQI1CQgQNbUmupCgAABAgQIECBAgACBggICZEFcRRMgQIAAAQIECBAgQKAmAQGyptZUFwIECBAgQIAAAQIECBQUECAL4iqaAAECBAgQIECAAAECNQkIkDW1proQIECAAAECBAgQIECgoIAAWRBX0QQIECBAgAABAgQIEKhJQICsqTXVhQABAgQIECBAgAABAgUFBMiCuIomQIAAAQIECBAgQIBATQICZE2tqS4ECBAgQIAAAQIECBAoKCBAFsRVNAECBAgQIECAAAECBGoSECBrak11IUCAAAECBAgQIECAQEEBAbIgrqIJECBAgAABAgQIECBQk4AAWVNrqgsBAgQIECBAgAABAgQKCgiQBXEVTYAAAQIECBAgQIAAgZoEBMiaWlNdCBAgQIAAAQIECBAgUFBAgCyIq2gCBAgQIECAAAECBAjUJCBA1tSa6kKAAAECBAgQIECAAIGCAgJkQVxFEyBAgAABAgQIECBAoCYBAbKm1lQXAgQIECBAgAABAgQIFBQQIAviKpoAAQIECBAgQIAAAQI1CQiQNbWmuhAgQIAAAQIECBAgQKCggABZEFfRBAgQIECAAAECBAgQqElAgKypNdWFAAECBAgQIECAAAECBQUEyIK4iiZAgAABAgQIECBAgEBNAgJkTa2pLgQIECBAgAABAgQIECgoIEAWxFU0AQIECBAgQIAAAQIEahIQIGtqTXUhQIAAAQIECBAgQIBAQQEBsiCuogkQIECAAAECBAgQIFCTgABZU2uqCwECBAgQIECAAAECBAoKCJAFcRVNgAABAgQIECBAgACBmgQEyJpaU10IECBAgAABAgQIECBQUECALIiraAIECBAgQIAAAQIECNQkIEDW1JrqQoAAAQIECBAgQIAAgYICAmRBXEUTIECAAAECBAgQIECgJgEBsqbWVBcCBAgQIECAAAECBAgUFBAgC+IqmgABAgQIECBAgAABAjUJCJA1taa6ECBAgAABAgQIECBAoKCAAFkQV9EECBAgQIAAAQIECBCoSUCArKk11YUAAQIECBAgQIAAAQIFBQTIgriKJkCAAAECBAgQIECAQE0CAmRNrakuBAgQIECAAAECBAgQKCggQBbEVTQBAgQIECBAgAABAgRqEhAga2pNdSFAgAABAgQIECBAgEBBAQGyIK6iCRAgQIAAAQIECBAgUJOAAFlTa6oLAQIECBAgQIAAAQIECgoIkAVxFU2AAAECBAgQIECAAIGaBATImlpTXQgQIECAAAECBAgQIFBQQIAsiKtoAgQIECBAgAABAgQI1CQgQNbUmupCgAABAgQIECBAgACBggICZEFcRRMgQIAAAQIECBAgQKAmAQGyptZUFwIECBAgQIAAAQIECBQUECAL4iqaAAECBAgQIECAAAECNQkIkDW1proQIECAAAECBAgQIECgoIAAWRBX0QQIECBAgAABAgQIEKhJQICsqTXVhQABAgQIECBAgAABAgUFBMiCuIomQIAAAQIECBAgQIBATQICZE2tqS4ECBAgQIAAAQIECBAoKCBAFsRVNAECBAgQIECAAAECBGoSECBrak11IUCAAAECBAgQIECAQEEBAbIgrqIJECBAgAABAgQIECBQk4AAWVNrqgsBAgQIECBAgAABAgQKCgiQBXEVTYAAAQIECBAgQIAAgZoEBMiaWlNdCBAgQIAAAQIECBAgUFBAgCyIq2gCBAgQIECAAAECBAjUJCBA1tSa6kKAAAECBAgQIECAAIGCAgJkQVxFEyBAgAABAgQIECBAoCYBAbKm1lQXAgQIECBAgAABAgQIFBQQIAviKpoAAQIECBAgQIAAAQI1CQiQNbWmuhAgQIAAAQIECBAgQKCggABZEFfRBAgQIECAAAECBAgQqElAgKypNdWFAAECBAgQIECAAAECBQUEyIK4iiZAgAABAgQIECBAgEBNAgJkTa2pLgQIECBAgAABAgQIECgoIEAWxFU0AQIECBAgQIAAAQIEahIQIGtqTXUhQIAAAQIECBAgQIBAQQEBsiCuogkQIECAAAECBAgQIFCTgABZU2uqCwECBAgQIECAAAECBAoKCJAFcRVNgAABAgQIECBAgACBmgQEyJpaU10IECBAgAABAgQIECBQUECALIiraAIECBAgQIAAAQIECNQkIEDW1JrqQoAAAQIECBAgQIAAgYICAmRBXEUTIECAAAECBAgQIECgJgEBsqbWVBcCBAgQIECAAAECBAgUFBAgC+IqmgABAgQIECBAgAABAjUJCJA1taa6ECBAgAABAgQIECBAoKCAAFkQV9EECBAgQIAAAQIECBCoSUCArKk11YUAAQIECBAgQIAAAQIFBQTIgriKJkCAAAECBAgQIECAQE0CAmRNrakuBAgQIECAAAECBAgQKCggQBbEVTQBAgQIECBAgAABAgRqEhAga2pNdSFAgAABAgQIECBAgEBBAQGyIK6iCRAgQIAAAQIECBAgUJOAAFlTa6oLAQIECBAgQIAAAQIECgoIkAVxFU2AAAECBAgQIECAAIGaBATImlpTXQgQIECAAAECBAgQIFBQQIAsiKtoAgQIECBAgAABAgQI1CQgQNbUmupCgAABAgQIECBAgACBggICZEFcRRMgQIAAAQIECBAgQKAmAQGyptZUFwIECBAgQIAAAQIECBQUECAL4iqaAAECBAgQIECAAAECNQkIkDW1proQIECAAAECBAgQIECgoIAAWRBX0QQIECBAgAABAgQIEKhJQICsqTXVhQABAgQIECBAgAABAgUFBMiCuIomQIAAAQIECBAgQIBATQICZE2tqS4ECBAgQIAAAQIECBAoKCBAFsRVNAECBAgQIECAAAECBGoSECBrak11IUCAAAECBAgQIECAQEEBAbIgrqIJECBAgAABAgQIECBQk4AAWVNrqgsBAgQIECBAgAABAgQKCgiQBXEVTYAAAQIECBAgQIAAgZoEBMiaWlNdCBAgQIAAAQIECBAgUFBAgCyIq2gCBAgQIECAAAECBAjUJCBA1tSa6kKAAAECBAgQIECAAIGCAgJkQVxFEyBAgAABAgQIECBAoCYBAbKm1lQXAgQIECBAgAABAgQIFBQQIAviKpoAAQIECBAgQIAAAQI1CQiQNbWmuhAgQIAAAQIECBAgQKCggABZEFfRBAgQIECAAAECBAgQqElAgKypNdWFAAECBAgQIECAAAECBQUEyIK4iiZAgAABAgQIECBAgEBNAgJkTa2pLgQIECBAgAABAgQIECgoIEAWxFU0AQIECBAgQIAAAQIEahIQIGtqTXUhQIAAAQIECBAgQIBAQQEBsiCuogkQIECAAAECBAgQIFCTgABZU2uqCwECBAgQIECAAAECBAoKCJAFcRVNgAABAgQIECBAgACBmgQEyJpaU10IECBAgAABAgQIECBQUECALIiraAIECBAgQIAAAQIECNQkIEDW1JrqQoAAAQIECBAgQIAAgYICAmRBXEUTIECAAAECBAgQIECgJgEBsqbWVBcCBAgQIECAAAECBAgUFBAgC+IqmgABAgQIECBAgAABAjUJCJA1taa6ECBAgAABAgQIECBAoKCAAFkQV9EECBAgQIAAAQIECBCoSUCArKk11YUAAQIECBAgQIAAAQIFBQTIgriKJkCAAAECBAgQIECAQE0CAmRNrakuBAgQIECAAAECBAgQKCggQBbEVTQBAgQIECBAgAABAgRqEhAga2pNdSFAgAABAgQIECBAgEBBAQGyIK6iCRAgQIAAAQIECBAgUJOAAFlTa6oLAQIECBAgQIAAAQIECgoIkAVxFU2AAAECBAgQIECAAIGaBATImlpTXQgQIECAAAECBAgQIFBQQIAsiKtoAgQIECBAgAABAgQI1CQgQNbUmupCgAABAgQIECBAgACBggICZEFcRRMgQIAAAQIECBAgQKAmAQGyptZUFwIECBAgQIAAAQIECBQUECAL4iqaAAECBAgQIECAAAECNQkIkDW1proQIECAAAECBAgQIECgoIAAWRBX0QQIECBAgAABAgQIEKhJQICsqTXVhQABAgQIECBAgAABAgUFBMiCuIomQIAAAQIECBAgQIBATQICZE2tqS4ECBAgQIAAAQIECBAoKCBAFsRVNAECBAgQIECAAAECBGoSECBrak11IUCAAAECBAgQIECAQEEBAbIgrqIJECBAgAABAgQIECBQk4AAWVNrqgsBAgQIECBAgAABAgQKCgiQBXEVTYAAAQIECBAgQIAAgZoEBMiaWlNdCBAgQIAAAQIECBAgUFBAgCyIq2gCBAgQIECAAAECBAjUJCBA1tSa6kKAAAECBAgQIECAAIGCAgJkQVxFEyBAgAABAgQIECBAoCYBAbKm1lQXAgQIECBAgAABAgQIFBQQIAviKpoAAQIECBAgQIAAAQI1CQiQNbWmuhAgQIAAAQIECBAgQKCggABZEFfRBAgQIECAAAECBAgQqElAgKypNdWFAAECBAgQIECAAAECBQUEyIK4iiZAgAABAgQIECBAgEBNAgJkTa2pLgQIECBAgAABAgQIECgoIEAWxFU0AQIECBAgQIAAAQIEahIQIGtqTXUhQIAAAQIECBAgQIBAQQEBsiCuogkQIECAAAECBAgQIFCTgABZU2uqCwECBAgQIECAAAECBAoKCJAFcRVNgAABAgQIECBAgACBmgQEyJpaU10IECBAgAABAgQIECBQUECALIiraAIECBAgQIAAAQIECNQkIEDW1JrqQoAAAQIECBAgQIAAgYICAmRBXEUTIECAAAECBAgQIECgJgEBsqbWVBcCBAgQIECAAAECBAgUFBAgC+IqmgABAgQIECBAgAABAjUJCJA1taa6ECBAgAABAgQIECBAoKCAAFkQV9EECBAgQIAAAQIECBCoSUCArKk11YUAAQIECBAgQIAAAQIFBQTIgriKJkCAAAECBAgQIECAQE0CAmRNrakuBAgQIECAAAECBAgQKCggQBbEVTQBAgQIECBAgAABAgRqEhAga2pNdSFAgAABAgQIECBAgEBBAQGyIK6iCRAgQIAAAQIECBAgUJOAAFlTa6oLAQIECBAgQIAAAQIECgoIkAVxFU2AAAECBAgQIECAAIGaBATImlpTXQgQIECAAAECBAgQIFBQQIAsiKtoAgQIECBAgAABAgQI1CQgQNbUmupCgAABAgQIECBAgACBggICZEFcRRMgQIAAAQIECBAgQKAmAQGyptZUFwIECBAgQIAAAQIECBQUECAL4iqaAAECBAgQIECAAAECNQkIkDW1proQIECAAAECBAgQIECgoIAAWRBX0QQIECBAgAABAgQIEKhJQICsqTXVhQABAgQIECBAgAABAgUFBMiCuIomQIAAAQIECBAgQIBATQICZE2tqS4ECBAgQIAAAQIECBAoKCBAFsRVNAECBAgQIECAAAECBGoSECBrak11IUCAAAECBAgQIECAQEEBAbIgrqIJECBAgAABAgQIECBQk4AAWVNrqgsBAgQIECBAgAABAgQKCgiQBXEVTYAAAQIECBAgQIAAgZoEBMiaWlNdCBAgQIAAAQIECBAgUFBAgCyIq2gCBAgQIECAAAECBAjUJCBA1tSa6kKAAAECBAgQIECAAIGCAgJkQVxFEyBAgAABAgQIECBAoCYBAbKm1lQXAgQIECBAgAABAgQIFBQQIAviKpoAAQIECBAgQIAAAQI1CQiQNbWmuhAgQIAAAQIECBAgQKCggABZEFfRBAgQIECAAAECBAgQqElAgKypNdWFAAECBAgQIECAAAECBQUEyIK4iiZAgAABAgQIECBAgEBNAgJkTa2pLgQIECBAgAABAgQIECgoIEAWxFU0AQIECBAgQIAAAQIEahIQIGtqTXUhQIAAAQIECBAgQIBAQQEBsiCuogkQIECAAAECBAgQIFCTgABZU2uqCwECBAgQIECAAAECBAoKCJAFcRVNgAABAgQIECBAgACBmgQEyJpaU10IECBAgAABAgQIECBQUECALIiraAIECBAgQIAAAQIECNQkIEDW1JrqQoAAAQIECBAgQIAAgYICAmRBXEUTIECAAAECBAgQIECgJgEBsqbWVBcCBAgQIECAAAECBAgUFBAgC+IqmgABAgQIECBAgAABAjUJCJA1taa6ECBAgAABAgQIECBAoKCAAFkQV9EECBAgQIAAAQIECBCoSUCArKk11YUAAQIECBAgQIAAAQIFBQTIgriKJkCAAAECBAgQIECAQE0CAmRNrakuBAgQIECAAAECBAgQKCggQBbEVTQBAgQIECBAgAABAgRqEhAga2pNdSFAgAABAgQIECBAgEBBAQGyIK6iCRAgQIAAAQIECBAgUJOAAFlTa6oLAQIECBAgQIAAAQIECgoIkAVxFU2AAAECBAgQIECAAIGaBATImlpTXQgQIECAAAECBAgQIFBQQIAsiKtoAgQIECBAgAABAgQI1CQgQNbUmupCgAABAgQIECBAgACBggICZEFcRRMgQIAAAQIECBAgQKAmAQGyptZUFwIECBAgQIAAAQIECBQUECAL4iqaAAECBAgQIECAAAECNQkIkDW1proQIECAAAECBAgQIECgoIAAWRBX0QQIECBAgAABAgQIEKhJQICsqTXVhQABAgQIECBAgAABAgUFBMiCuIomQIAAAQIECBAgQIBATQICZE2tqS4ECBAgQIAAAQIECBAoKCBAFsRVNAECBAgQIECAAAECBGoSECBrak11IUCAAAECBAgQIECAQEEBAbIgrqIJECBAgAABAgQIECBQk4AAWVNrqgsBAgQIECBAgAABAgQKCgiQBXEVTYAAAQIECBAgQIAAgZoEBMiaWlNdCBAgQIAAAQIECBAgUFBAgCyIq2gCBAgQIECAAAECBAjUJCBA1tSa6kKAAAECBAgQIECAAIGCAgJkQVxFEyBAgAABAgQIECBAoCYBAbKm1lQXAgQIECBAgAABAgQIFBQQIAviKpoAAQIECBAgQIAAAQI1CQiQNbWmuhAgQIAAAQIECBAgQKCggABZEFfRBAgQIECAAAECBAgQqElAgKypNdWFAAECBAgQIECAAAECBQUEyIK4iiZAgAABAgQIECBAgEBNAgJkTa2pLgQIECBAgAABAgQIECgoIEAWxFU0AQIECBAgQIAAAQIEahIQIGtqTXUhQIAAAQIECBAgQIBAQQEBsiCuogkQIECAAAECBAgQIFCTgABZU2uqCwECBAgQIECAAAECBAoKCJAFcRVNgAABAgQIECBAgACBmgQEyJpaU10IECBAgAABAgQIECBQUECALIiraAIECBAgQIAAAQIECNQkIEDW1JrqQoAAAQIECBAgQIAAgYICAmRBXEUTIECAAAECBAgQIECgJgEBsqbWVBcCBAgQIECAAAECBAgUFBAgC+IqmgABAgQIECBAgAABAjUJCJA1taa6ECBAgAABAgQIECBAoKCAAFkQV9EECBAgQIAAAQIECBCoSUCArKk11YUAAQIECBAgQIAAAQIFBQTIgriKJkCAAAECBAgQIECAQE0CAmRNrakuBAgQIECAAAECBAgQKCggQBbEVTQBAgQIECBAgAABAgRqEhAga2pNdSFAgAABAgQIECBAgEBBAQGyIK6iCRAgQIAAAQIECBAgUJOAAFlTa6oLAQIECBAgQIAAAQIECgoIkAVxFU2AAAECBAgQIECAAIGaBATImlpTXQgQIECAAAECBAgQIFBQQIAsiKtoAgQIECBAgAABAgQI1CQgQNbUmupCgAABAgQIECBAgACBggICZEFcRRMgQIAAAQIECBAgQKAmAQGyptZUFwIECBAgQIAAAQIECBQUECAL4iqaAAECBAgQIECAAAECNQkIkDW1proQIECAAAECBAgQIECgoIAAWRBX0QQIECBAgAABAgQIEKhJQICsqTXVhQABAgQIECBAgAABAgUFBMiCuIomQIAAAQIECBAgQIBATQICZE2tqS4ECBAgQIAAAQIECBAoKCBAFsRVNAECBAgQIECAAAECBGoSECBrak11IUCAAAECBAgQIECAQEEBAbIgrqIJECBAgAABAgQIECBQk4AAWVNrqgsBAgQIECBAgAABAgQKCgiQBXEVTYAAAQIECBAgQIAAgZoEBMiaWlNdCBAgQIAAAQIECBAgUFBAgCyIq2gCBAgQIECAAAECBAjUJCBA1tSa6kKAAAECBAgQIECAAIGCAgJkQVxFEyBAgAABAgQIECBAoCYBAbKm1lQXAgQIECBAgAABAgQIFBQQIAviKpoAAQIECBAgQIAAAQI1CQiQNbWmuhAgQIAAAQIECBAgQKCggABZEFfRBAgQIECAAAECBAgQqElAgKypNdWFAAECBAgQIECAAAECBQUEyIK4iiZAgAABAgQIECBAgEBNAgJkTa2pLgQIECBAgAABAgQIECgoIEAWxFU0AQIECBAgQIAAAQIEahIQIGtqTXUhQIAAAQIECBAgQIBAQQEBsiCuogkQIECAAAECBAgQIFCTgABZU2uqCwECBAgQIECAAAECBAoKCJAFcRVNgAABAgQIECBAgACBmgQEyJpaU10IECBAgAABAgQIECBQUECALIiraAIECBAgQIAAAQIECNQkIEDW1JrqQoAAAQIECBAgQIAAgYICAmRBXEUTIECAAAECBAgQIECgJgEBsqbWVBcCBAgQIECAAAECBAgUFBAgC+IqmgABAgQIECBAgAABAjUJCJA1taa6ECBAgAABAgQIECBAoKCAAFkQV9EECBAgQIAAAQIECBCoSUCArKk11YUAAQIECBAgQIAAAQIFBQTIgriKJkCAAAECBAgQIECAQE0CAmRNrakuBAgQIECAAAECBAgQKCggQBbEVTQBAgQIECBAgAABAgRqEhAga2pNdSFAgAABAgQIECBAgEBBAQGyIK6iCRAgQIAAAQIECBAgUJOAAFlTa6oLAQIECBAgQIAAAQIECgoIkAVxFU2AAAECBAgQIECAAIGaBATImlpTXQgQIECAAAECBAgQIFBQQIAsiKtoAgQIECBAgAABAgQI1CQgQNbUmupCgAABAgQIECBAgACBggICZEFcRRMgQIAAAQIECBAgQKAmAQGyptZUFwIECBAgQIAAAQIECBQUECAL4iqaAAECBAgQIECAAAECNQkIkDW1proQIECAAAECBAgQIECgoIAAWRBX0QQIECBAgAABAgQIEKhJQICsqTXVhQABAgQIECBAgAABAgUFBMiCuIomQIAAAQIECBAgQIBATQICZE2tqS4ECBAgQIAAAQIECBAoKCBAFsRVNAECBAgQIECAAAECBGoSECBrak11IUCAAAECBAgQIECAQEEBAbIgrqIJECBAgAABAgQIECBQk4AAWVNrqgsBAgQIECBAgAABAgQKCgiQBXEVTYAAAQIECBAgQIAAgZoEBMiaWlNdCBAgQIAAAQIECBAgUFBAgCyIq2gCBAgQIECAAAECBAjUJCBA1tSa6kKAAAECBAgQIECAAIGCAgJkQVxFEyBAgAABAgQIECBAoCYBAbKm1lQXAgQIECBAgAABAgQIFBQQIAviKpoAAQIECBAgQIAAAQI1CQiQNbWmuhAgQIAAAQIECBAgQKCggABZEFfRBAgQIECAAAECBAgQqElAgKypNdWFAAECBAgQIECAAAECBQUEyIK4iiZAgAABAgQIECBAgEBNAgJkTa2pLgQIECBAgAABAgQIECgoIEAWxFU0AQIECBAgQIAAAQIEahIQIGtqTXUhQIAAAQIECBAgQIBAQQEBsiCuogkQIECAAAECBAgQIFCTgABZU2uqCwECBAgQIECAAAECBAoKCJAFcRVNgAABAgQIECBAgACBmgQEyJpaU10IECBAgAABAgQIECBQUECALIiraAIECBAgQIAAAQIECNQkIEDW1JrqQoAAAQIECBAgQIAAgYICAmRBXEUTIECAAAECBAgQIECgJgEBsqbWVBcCBAgQIECAAAECBAgUFBAgC+IqmgABAgQIECBAgAABAjUJCJA1taa6ECBAgAABAgQIECBAoKCAAFkQV9EECBAgQIAAAQIECBCoSUCArKk11YUAAQIECBAgQIAAAQIFBQTIgriKJkCAAAECBAgQIECAQE0CAmRNrakuBAgQIECAAAECBAgQKCggQBbEVTQBAgQIECBAgAABAgRqEhAga2pNdSFAgAABAgQIECBAgEBBAQGyIK6iCRAgQIAAAQIECBAgUJOAAFlTa6oLAQIECBAgQIAAAQIECgoIkAVxFU2AAAECBAgQIECAAIGaBATImlpTXQgQIECAAAECBAgQIFBQQIAsiKtoAgQIECBAgAABAgQI1CQgQNbUmupCgAABAgQIECBAgACBggICZEFcRRMgQIAAAQIECBAgQKAmAQGyptZUFwIECBAgQIAAAQIECBQUECAL4iqaAAECBAgQIECAAAECNQkIkDW1proQIECAAAECBAgQIECgoIAAWRBX0QQIECBAgAABAgQIEKhJQICsqTXVhQABAgQIECBAgAABAgUFBMiCuIomQIAAAQIECBAgQIBATQICZE2tqS4ECBAgQIAAAQIECBAoKCBAFsRVNAECBAgQIECAAAECBGoSECBrak11IUCAAAECBAgQIECAQEEBAbIgrqIJECBAgAABAgQIECBQk4AAWVNrqgsBAgQIECBAgAABAgQKCgiQBXEVTYAAAQIECBAgQIAAgZoEBMiaWlNdCBAgQIAAAQIECBAgUFBAgCyIq2gCBAgQIELziOEAACAASURBVECAAAECBAjUJCBA1tSa6kKAAAECBAgQIECAAIGCAgJkQVxFEyBAgAABAgQIECBAoCYBAbKm1lQXAgQIECBAgAABAgQIFBQQIAviKpoAAQIECBAgQIAAAQI1CQiQNbWmuhAgQIAAAQIECBAgQKCggABZEFfRBAgQIECAAAECBAgQqElAgKypNdWFAAECBAgQIECAAAECBQUEyIK4iiZAgAABAgQIECBAgEBNAgJkTa2pLgQIECBAgAABAgQIECgosC5AFtyOogkQIECAAAECBAgQIECgDoHddmua5q677rqrjuqoxeQF4sqI/jz5bgCAAAECBJZUwHl6SRvGbhGYQ8AU1jmQvGX1BJyYVq/N7DEBAgQITEfAeXo6ba2m9QkIkPW1qRo1TePEpBsQIECAAIHlFXCeXt62sWcEZgkIkLOE/H0lBZyYVrLZ7DQBAgQITETAeXoiDa2aVQoIkFU2q0o5MekDBAgQIEBgeQWcp5e3bewZgVkCAuQsIX9fSQEnppVsNjtNgAABAhMRcJ6eSEOrZpUCAmSVzapSTkz6AAECBAgQWF4B5+nlbRt7RmCWgAA5S8jfV1LAiWklm81OEyBAgMBEBJynJ9LQqlmlgABZZbOqlBOTPkCAAAECBJZXwHl6edvGnhGYJTB3gPzKV77SPPWpT20OPPDA5sILL1xX7mte85rm2muvbd72trc1e+65Z/u3b37zm82RRx7ZXHHFFWvvfe5zn7vus6nMT3/60+vK22+//Zp3vOMdzaMe9ajBsvIPvPe9722e8pSnzKqrv09IYJ4T0/Oe97zmoosu6lVJffDWW29tzjnnnCb62M0339w861nPam688cbez0T/jvdGv4/39fXJoT4fBXb7/YSaS1UJECBAYGICfefp+D35xje+cd1vwGBJ585TTz21PbfG+2666aZdfo/2ve/yyy9vz+H3v//9dxGOctLf99hjj11+t6YP5L8z3/e+97W/h/teT3rSk9rfwt/61rfa93R/38Znur+FJ9bsqluJwKYDZBwM3cDWDZCf+MQn2h/QhxxyyLqDO36wf+Yzn1k7kONAP/roo5szzzxzLSyGaxycL3rRi9a+QFIYHfpRXklbqMaIAvMEyHxz0efiokV+EST1xRQg85PPUJ+c1VeH+vyIVVcUAQIECBBYeoGhABm//1IQS4MS2wmQf/qnf9o86EEPas4///y1QY50fo+Q98hHPrL9XZoCZPe3Zvc36dDvhRx86Fyf6nHooYc2p5xyytK3kR0kMCSwqQAZYW+vvfZq/umf/mnd1Zw8QMaGYgTmoIMO6j04IkTGK0YxN/ox3VfmrADZNxKq6acpsMoBMoXQoWNomi2q1gQIECBQk8BQgIwZbbfcckuTh6ztBMgoL367HnHEEesGK9Lv0TSwMRQgu79VtxMgo/38Vq2pF0+3LpsOkHHFJMJfHIxpKmt+MNxwww3NiSee2Jx33nnrDtREHKOTZ5xxRnPxxRe3/9Q3Ahn/nr9v6KCebrOp+SyBVQ6Qs+rm7wQIECBAYNUFhgJkTE2NGWz5TLTtBsiY9nrbbbetDWxEefFb9fGPf3zzJ3/yJzNHIK+66qq137wC5Kr3PPs/hsCmA2RMN41XjAa++tWvXpuLnu6BvPrqq9fuGeubb55fybnf/e43GCDz9+2///6D89LT1IO+bY0BpIzVFFjmADl0X0R3ys5qyttrAgQIECAwW2CjABkDFDFCGKEvv6dwK/dAxu/TV7ziFe0U1rglJabFRgiMUBhBNd2mstE9kPn5eaN7ION3cQy0mMI6u/29Y7UFthQgY3Gb/Mbjyy67bG0RnZIBctYU1tVuCns/psAyB8ihUfcx67/qZaX7qB/ykIfscl/qqtdtJ/c/ud773vdur7ifffbZ7UJSGy3qEO+L2xLufve7tzNHnvjEJ+5kFWybAIFKBGYFyPx+wcMPP7xdlGarATJC6FlnndWWEb9hI5xGeIxXN0B2f2um7800aDLvCOTQxeIUMitpRtWYqMCWA2S6Tyumsu67775rAdIU1on2pCWrtgC5ZA2yyd0RIDcJNufbNxsgv/Od7zTPf/7z27D53e9+t4kfcW94wxuau93tbnNu0dsIECDQLzArQMan0gI2Eboi6G0nQMYAR4w6vuQlL1m71SoWhpwVIGM/8vU75g2Q3YvF3YUk9QsCqyyw5QAZlU4/Rn78x3+8uec979mOFMRrpxbRWeWGsO/jCgiQ43ouorQvfvGL7fLtH/nIR5r47zvuuKPdbFykimnsv/Zrv9YcddRRzQ//8A8vYneq3EY3QMaPspjWNTQCed111zXPeMYzmgc/+MFtgIwLhO985zubRzziEVX6qBQBAosTmCdApvD2d3/3d81//Md/rN06NRTi4jsuX4cjX6MjHq2R7nv8+7//+/aexihn3gAZgyUxPXWrATINvESduiu+L07dlgiMI7CtABm7EAdnd8llj/EYp3GUsnUBAXLrdov+5H//93835557bvvD4Hvf+14bFn/iJ36iiavFER4jvMSPhy996UvNAx/4wPZ9v/7rv77o3axie1/+8peb3/iN32gv+L373e9u/+93f/d3W9O+JeUjXJ5wwgntD63/+Z//af877oM//fTTq/BQCQIEdk5g3gCZPz85PUZu6HEY+X2Tca9jd8XT9PznVM48AbIbSrcaIEN66PfxzrWCLRPYmsC2A+TQFZX071dcccXannWvcg89VL27ME5fWXl1U7mWRt5aJ6jxUzsdIPN+n3zjhBV9e+i+iHhf/JA/5phjNhzFr6m97rrrrjY8/v7v/377nK7475//+Z9vPvnJT7YLdaV7IHfffffmXe96V/u+O++8s3nrW9/a/Oqv/mrz2c9+th0hi6AZYSj+f/6KpeCf/vSnt/8Un//Xf/3X3mfUxt/T91H8d3rodN/J/vbbb29e/OIXN+95z3uapz3taW24ShfS+oJYXxlpW/vss88uV6L/8R//sa3T5z73uXXP3I1wHc8zi+3F39IIbV7f7jN6u33lG9/4RvPsZz+7+f7v//525cEPf/jD7bbe/va3twui5a+oZ7TBv/zLv7SjjnEPZExh/dEf/dH2malxH2X+2uiHUZ9t+uznP//51u9Tn/pUe5Eg2jouIjzzmc9sF1n7oR/6obXNzDoXxBv322+/tWcIb8U5+uSVV17Z/MEf/EH7EPDv+77va37hF36hefnLX9487GEPm+vwGzq3pQ/3Lf4WoyvR/z/4wQ+ujcD/5E/+ZPMrv/IrzQte8IL2okp6pf7W195pgY/8fLvZttmovboA3enm0U+j3f78z/+8HdmJC8z/+0OjPXaPPfbY9m8ve9nLmpNPPnntb0OwqX987GMfa4/RIZO5Gsablkpg3gAZO536dd7n5/md2f1dmAfGWHyxL0AOnb/Td+RGi+ik75+NFolMn3cv5FJ1RzuzSYG5A+Qmy/V2AjsqsNkAuaM7O+GNpx+fQRCBJsJjvIbugYygc/zxxzePecxj2pAQoeY5z3lOe1/LJZdc0v7Yzl8f+MAH2h+zxx13XBs+N/tDuu/9EeBOO+20dvn3gw8+uPnt3/7t0QJkhJe4xyd+WMQr/7H0h3/4h+2P7ghYj3vc49YFuAhfEbpnBcgoP4JF3MP4+te/vg1I4flHf/RHuzx26aMf/Wj73LSoZ9z3GK+4HzJ+XPUtprNZ2ygvQvhJJ53Ulp3qFME1th1hIf4WQS7dc5l+MF5zzTVtW3enM4fDv/3bv80MkBs5p32KkB37FMEugvbee+/dhv2f/dmfnXnEpgAW/fPhD3/42vv/67/+q/nLv/zL5r73ve+6ZylHcI7p2RGWYoGPn/7pn27i/tOoT1wkif4efT9uF4nXMgfIGPWJsBf1CcPcLPXhJzzhCc2b3vSmXS5C5LDRRvGdEMfaf/7nfza/+Iu/2DzgAQ9o4gJL9LX4gf7mN7+5efSjHz2zPbxhOQWcp5ezXewVgXkEBMh5lLxn5QScmFajyV73ute1Uyjjvum4/zEFhaEAGaNhhx12WPPv//7vbWD8uZ/7ufb/x6hajGbED+s02hE/QCMc/cVf/EX7nsc+9rHbDpBpVC5CXISoNDo21ghk+uF94403rguQsZR9jHZGMMmDdmrl7rSs7bZ+2MWU1ggteVhMgTyWtO8uprPZAJlGh7/+9a/vEgT++Z//uW3TCA6xyndMXY5XCpDXX3/9WkjM6xoOcTEhLi5EEBsagRxyTu37D//wD2294wJBWMRzjSPMRn+K4D3rlaYK/+Zv/ua6qcF9I3vJOvp/d1QupnfH8XHBBRe0bRGBfhUCZNQpLoLExZAY4Y66hWkc5/GaJ4j/7d/+7dr7Y6XgOH7jlQfLCNqXXnppOyrutXoCztOr12b2mEASECD1hSoFnJhWo1lT8HnVq17V/thMr6EAmU9ZSqNtseBOTFONMBfTVGNaaLxS2Iwfl2nBgs2GnO77Ywrp7/zO77RBNaZYptcYATJN7/vqV7/ajsxE/VIdY6QwthfTfCNI3Ote91rXwGMHyBTu/t//+3/rpgZHcI/9SNNa88V0Nmsb00R/7/d+rznooIPahXxS8N8oKI4RIDdyjjpEcI7AGiPN6YJGmnIW088jwMc9pBu9kkVM18zvLe0LkHFxIEaFI7xG8P2xH/uxdUX39a1lH4GMCkR9YvQ/PdorRpVjem4Ey7Si5UaG4fba17629/7ctDrwW97ylnXBejW+9exl/gM0Lgh4ESCwegIC5Oq1mT2eQ0CAnANpCd6SfiS+8IUvbEPZrACZ7uH70Ic+1N6XF4vppB+T3amV6fmFEU5j5Chemw05+ftj4Zj44fvtb397l1GPMQJkCqdx31hMR41RlxQgI9Adeuih7SJD8b5uyBg7QMaoTpQZ9691F8yJZ6mdccYZuyyms1nbvPtFMLz55pubGFmMaZxp6uZ97nOfdSONYwTIjZz7DokI9LF4UITIeRcQ+vjHP96OFkbfixHz9Jp1b2GMOEagjNG6mKoZ/SAs4nP5/VKrECCjzmmkN8JkrOIbfTiC+Q/8wA9s+O0Tx1hMgY17fdNMg+4Hoh1jhHfeUeEl+LqzCx0B52ldgsDqCgiQq9t29nwDASem1egeKaikexrTwixDI5Bp0Zy4tyyf2pjCYoz4xI/r+LEa9+vF6q35+1K5aYpon1K+wEn3/XG/VQS7n/mZn1n30e0GyBgVi5G9CExxX1eMxuYBMkJyTNGNkbpYZCnuC4sFINKo3ZgBMrYVjumxTEM9KRaWyRcu2qxtlBtBKeoao1NpUaCYHhwLpUSIiFeajhr/vd0AOcs5r2u3PjGa9sd//MftPaizXhE2w7B7X+5QgIzHC7zyla9s3x8BMr3CIUY7I0j1BciN9qNvEZ15+/3QIkCxSFXc0xnTi2M131hgaOhYjX2L0aWzzz67eelLX9oeMzFD4IADDpjF1xrElO3oA3/2Z3+2du9n/sH/3965QN01nG98LHFJESIStyIJiUu1EY0kRAgiQqUJKlXELe4USUhZiiLqGtW6k6g7FbQpQiKRugSlLikqcQuliCKq6p7lv37Tvuc/Z2efc/Y5e3/ft885z6yV9eX7zt6zZ553zp555nnfd9hEgqRzGHzo/l6xcl2QGwQ0T+fGFGqIEKgaARHIqiHTDfWAgCamerCSc6g7ECdcNMP4r7hFKeoMipjFo4XJVaLZViEKuLWy2A1j9azezp07u759+xaBFJfgxK6H4JLgh0U+mTijCUDSEkjqgxxa3F0cIUShIw4PslyqVEqik2RUGEkHQ5K9xJWFCxf6+MQwPrJabCFFEADICtkNSdbTp08fH8/GBgDxctFYx7QEMgnO1l/iMCHzH3zwgT+blJ8kYsKFuVJBRWZzBJW8V69ehcvjCKS51HItiWJwkyV+E5W5U6dOsQmabLyh6JHcJyzvvPOOmzJlStHZntXaxtqJnYcOHeqTVVHCBEecpwepZbyEGZNJomOF69nwYFxCvJNmXq2GQHI+LJstoQt0Jfvo83wgoHk6H3ZQK4RALQiIQNaCmu7JPQKamHJvokIDyahJJlMIEgk3cEnDVRUCwTEeuLy98MILPh6KDJZk30RxQIELC+6wqGaQGogGC1wIAAtyK9W6WUavpy2QWDK/hgQ2DYHkSBDUIpKEWJ2lFEVcWCFBKJBkIEUFZGGeNAtrklFRri92Pwt22ggORtCrxRYygUsofcEttqVjIKvBOYoTh44zHiFSkDOLs43D0xRciBwkElXZShyBNCWNo0tQW6OkPW8xkJYxliNxUEyJE40jkOERPWSzZZMHRTFJ5tQkLqyWPEsurEm+1fm8RvN0Pu2iVgmBJAiIQCZBSdfUHQKamOrLZHGujNEeoGxAWIw8RT+3hThnFaKOUWeYVIfrqyU50etNAUN1MbWQemslkJAF1FDi/lCgyCpJKUUg7YgJXBtJ5sLPctdXOwosC+n8+fNjs5xafXwOzqi2tJtkOtViW87t1lRQlMgsXFiT4ky2UzYJOPMx3HiopHyGOFtSJ9TEMK6Xa+IIZNy5jVYf6iSus8T75SkGMrQdCmgcgbSNofbt2/sxwiYHZC/JER70P2kSHezFBoxK/SGgebr+bKYWCwFDQARSY6EhEdDEVJ9mfe2117y7IItPjowg5goXNTJ1En8YPbw+7KWRH5QOiAcxWrgchqVakhN3PYt54itZCKOEkv21VgKJmkNbSUoTZuuMI1d2rAHq7OTJk90uu+xS6FpWMZBkycStFKwtc23cSAqzYFpimWqxNQWSMzo5H9ASq3COI4QAYmWHcuPSSalE5Eod45EUZzumBPdmbMtZgxQjQx06dIhNYhRihCsy4y7urMxyCiRnHJJht0ePHr461GZU9wkTJvj40LwQyCQKpLmuTp8+vZB11Vx1p06dmsiVNckxHj179iw6H7M+33rN22rN081re/W8/hEQgax/G6oHMQhoYqrvYVEuMUe5nlmGUBbjdvZj1gTSFsIsjnHfJMumEUji+DhqIywcRA8xQy3ElY84xk8//dQrXMR+EmMGcejSpUtJQghxws0X90lcaImxC10+syCQdh7hxIkTY49OiOJuCZBQH1F6cWlEiSKpCapQWOKIkxGEefPm+Q0C4lXp58yZMx3EABvyDOLnwAh1kLjJe+65x+HuGedKWopAJsUZ27I5gD26d+/uXYQhy7QJElcuho8YSQgf546SFCeMHTQsLM6W34cPH+6zu2J3s609E7dQMrmyWTBs2DAH6eKn4dpaWVijMZBszlhW2FIxkJBsxhAkmj7aJgt9DklhJVfW8LxHPApQdBkTZKfl/QC5Z+MBl3aV+kRA83R92k2tFgIgIAKpcdCQCGhiqm+z1kogK91XrUpW6vpp06a50aNHu/79+3uljrhEiF2lYhleuQ4CuWDBggIJDe8NCeFuu+1WWJCjDEbJJvdlQSDN9RIFMI58R/tm1+POCgYkv6mGQFIfrru4i6I6Qx4ho2TfBFvUQLJ9os6OHTvWxyByVAtxsahyHOESLaUIZBKcSeRDgUSiHtInXGmJMYXcUjebBWQejSulMpeWGhOhusomA5sCZLWlHuJ7IYwosZBJ3IVxw7WYytYikBDvsIAF5J3EV7jWor5Hv3MkPoIQU8CwX79+hSoghSipZN5l/EeTUcVhxRihvxwJAjZsxEAax4wZ47p161bpK6fPc4yA5ukcG0dNEwIVEBCB1BBpSAQ0MTWkWSt2iuMgcMHEHdTOfqx4UytdAAF56qmnvKIWTQDUSk3QY1oQASOQ3//+95dQYKOPhRChzIXxnS3YNFUtBHKJgObpXJpFjRICiRAQgUwEky6qNwQ0MdWbxdK3F+UI0ogCgkslbpB5KiKQebJG9m0RgcweU9XY2Ahonm5s+6p3jY2ACGRj27dpe6eJqXlMTxwiGUlxgeT8OGKvcHnMWxGBzJtFsm2PCGS2eKq2xkdA83Tj21g9bFwERCAb17ZN3TNNTM1jfpKqcLwHhdgrjvmwjJ7Ng4J6KgSEgBCoLwQ0T9eXvdRaIRAiIAKp8dCQCGhiakizqlNCQAgIASHQIAhonm4QQ6obTYmACGRTmr3xO62JqfFtrB4KASEgBIRA/SKgebp+baeWCwERSI2BhkRAE1NDmlWdEgJCQAgIgQZBQPN0gxhS3WhKBEQgm9Lsjd9pTUyNb2P1UAgIASEgBOoXAc3T9Ws7tVwIiEBqDDQkApqYGtKs6pQQEAJCQAg0CAKapxvEkOpGUyIgAtmUZm/8Tmtiqg8bc3bjgw8+6Nq1a+cGDRrkll122fpouFopBISAEBACqRDQPJ0KPt0sBNoUARHINoVfD28pBDQxtRSytdW7aNEif1bj3Xff7Z5++ml/ZmNYjjzySHfJJZe4/72QanuI7hICQkAICIG6QUDzdN2YSg0VAksgIAKpQdGQCGhiyo9Z586d64444gj32GOPLdGoNdZYw/Xr189NmDDBbbrppvlptFoiBISAEBACLYqA5ukWhVeVC4EWRUAEMmN4UVf22WcfN2/ePHfxxRe7o48+OvETPvzwQ3fQQQe5t99+291xxx1unXXWSXyvLixGQBNTPkYELqqHHXaYmzVrljvuuOPcAQcc4FZfffV8NE6tEAJCQAgIgTZDQPN0m0GvBwuB1AiIQKaGsLiC888/35133nmuffv27rvf/a674YYb3KqrrlrxKd988407/fTT/b8ttthCBLIiYuUv0MSUEsCMbie+cb/99nO4qI4fP14uqhnhqmqEgBAQAvWOgObpereg2t/MCIhAZmh9FMRRo0a5r776yquH06dPd9dff73bfvvtKz5l2rRpbvTo0e7dd98VgayIVuULNDFVxqg1rrjiiivcBRdc4L8Hb775prv00kvdM88845Zeemm39dZbe1Vyhx12KCKWbMJceeWVbvLkye65555zV111lf+50UYbuT322MONGzfOdezYcYnmP/vss457H374Yf+sDTbYwO28885uzJgxrlu3boXr+Yx61l57bXfttde6lVdeufAZsZmopDyPzZ8tt9zS11Xq+hdffNF7HNAnvAZ23313Xxcuu0899ZSv/5ZbbnE333yze+2119zmm2/u68fTYIUVVijqw+LFi91tt93mrr76ah8nyu+bbLKJ23fffZe4Hndg3jWvvvpqUR24BLMBdfLJJ3vX4LAQhzpx4kR37733updeesl98sknJTECRwh/2Cer68477/R4HH744e7yyy/3f7b27LjjjoW/2fWoz/R3mWWWKWDKZ9YenoHHRrTYRho4cf/UqVPdOeecU7QRYQo3n5122ml+bJSKo63FjqW+I7XYl7Zec8017tZbb3UvvPCCjwNmnhg4cKA74YQT3GabbZZoTDPGTjzxRP8dMK+VarCpZpyFto2ONWvsiBEjir5HYHP//fcX2dqutXHFJit9tu8K74m4sRYCEvfd5Ht17LHHuh49erjrrrvO/7RicyrvAeKv+amSLwQ0T+fLHmqNEKgGARHIatCqcO1dd93lFzosELfZZhv///33398vasslB8FllUXicsst577++mu/sJALazrDaGJKh19Wd7Oov+eee3yGVUhhz549Xd++fT15mTlzpvvss8/cqaee6kmefUf4vrCg3Gqrrfy9ffr08fc98cQT7sknn3TbbbedJ5W2IES9Z4EIaaI+Pl933XUd5A5i8+1vf9uTMggrJSsCyXNZyLMYpkQJ5Jw5c9zGG2/sN5JoE+Ru9uzZbv78+e7HP/6xu+yyywreCR9//LFfUNOv7t27FzLSUgdkFsLGZ+bNYIStc+fOHk8KxOCvf/2rJ7Ndu3b1pL13797+s1deecUdeOCBDpINKaZdX375pccUssr7igU491GyIpBG8G666Sa3/vrrF0gF77hDDjnETZkyxXtqDBgwoJCB9/PPP3f33Xefd3W29yCbArQfEgopN3J84YUXeuK40047FeETN35L2b2cHUt9DyBJ1dgXonfooYf6/jCuzS5mL8Zo2C+e+7vf/c5vsDCm+/fv78c7tn300Uf9WDZSVA021Y4z2mFjjQ0cbGiFDQA2I2hLuBHTmgTyiy++cGPHjvXfJbA699xz/Th6/fXX/dzLRslFF13kv28q+UNA83T+bKIWCYGkCIhAJkWqwnUsQlgAsghjl5nd85/85Cfu3//+t1cfWADHFRZxP/vZz/yCiZhJFJp//OMfIpAp7aKJKSWAGd3OYhIySDnmmGM82WKjhALBY1ENuUFt3GWXXYrIC4TrrLPO8sQBe0JGIGxka0UdQ43i73/+85/9pg2FZ2277bb+/yGxhDDdeOONbq211sqMQNrC3ZSZKIGkLSy6ITkooZR//vOfXrmbMWOGxwJ8KEaEhgwZ4vsAMaSEC/6wz6UUv9AVHmKOS7y9myDwUZUuXIDz7sLdmJIVgTSF6P333y8ikBAPngVx5H0Zuvkb0aMdRiDpA3hhfxRf+vL8888X7B4lX3HDtxSBLGfHUl8DG9dJ7cuY/elPf7rEdyDsl9mLZ0J89t57bz/mw/GDvRgHv/nNbzwWZ599trdvUmyqHWe0BaKMrRgTprDzdxuDbAC0FYGkHS+//LIniwsWLPDvkcGDB/s5FeIYksqMXmmqJkMENE9nCKaqEgKtjIAIZEaA24S/0koreZc1Fr9nnnmmV1fKJdNhlxm3K3ZRcWFlISwCmd4ompjSY5hFDbbQRuGCTOA2GhZIHdfstddefvME9cDIy8EHH1z4m91j3zNcYHH3XG+99fzGDW6yoVucXc8GzVFHHeUmTZrkN3dYCGehQJqyhvcA5AeiE0cgzzjjDHfKKacU9dniQnFnZeGNwsRmE+0yt9nwBuszCiPujxtuuGFZl9Goiylu8ZBWVDDqB7OwxLkVZkEgzbOiQ4cOvo8Qbevfr371K//OgwBBhMISRyD53Nw1cYll8wAclzT1+QAAGW9JREFUIaIhES83ZuPsXsmOlQhkEvsyVnnHo/ailKEAhyXOJZhNBL4XqOrMI6EHCwo23i2ogb/+9a+LXFnLYcM4qHac0U5rX9TFNC8EkjbaRgXeCqj1fOfCTaMs3mWqI3sENE9nj6lqFAKthYAIZEZI24QfLihsocjxBHHJdMytjAUdO+q4r4pAZmMQTUzZ4Ji2FiOQZCNmIyVaWAxDHkk6hTsjBNPIC5srI0eOLLoFQkhWV2KscNFE6UehxLWP31G0ogWiiQubtSELAkmdxF5BZB5//HGvGkYJJCpjXJtQ43BZX7hwoSeEqIz8jpoFyV1llVWKuoDCBAFkkYwr6A9/+MOSBBKSifpCrGMcoUbBgkig3qEA03aIDZiE12dBIKkD5Q21DKIcxpX+8Y9/9EoihD56/mcpAgkophZCJok133PPPX3Mpana1RLISnYsRyCT2hfCbwX7YHfwRzkDf/4xF4QxpXxv2Fwxeyf5HlbCBvfvascZzwWjk046aYmxnCcCaUo63zfcnNnIRdkmvlolvwhons6vbdQyIVAJARHISggl+JxdbHaEWQgwgZkLnf39gQce8JPZsGHDCrWZKxKfWaySJQmQApkA9AqXaGJKj2EWNRiBjCMz1B9HFiwGshQhtDotnsxcxW+//fZCDF/Ydr5jEBUSvLBRwwIelYIFdakSxutFCSffaxbiq622mo+tREGLI5DUH9emaDKQjz76yLcP90DqiYuXxvWUzSlTUeNiIOmLxX0SI4jqajGNkFTcgcEUAmmFuDoW2xDwOAJZbgyUS6JDffQJd0JUNOIdQwJJQiE+R5Wkb9jQkhmVI5CQ6V/+8pfu5z//ufvOd77jSfX3vve9REO1FjuWI5BJ7YviyPsehZ1/9N0KSXTWXHNNT+INz7hkMUk6WAkbcxuuZpzxXL6PjDvIbK9evQpNKUcgzW29VLvjkuiE16644oo+gdQPfvAD7/pLwqBKuLAZRWIp7MJ3knFSLvdAEkx1TcsioHm6ZfFV7UKgJREQgcwA3ahLWpjV0WJfou54LHxwa8LF1eKgRCAzMMb/qtDElB2WaWpCoUO9qJZAQvTi3DlpS60EksUoC9u33nrLE0jcKnGtbdeuXaGLeAE89NBD/rNSWVhJZsP32hSOsD3RLKxxybDSEEhTZUtlYbWOkPmZeDcW/GEiG5L50HdIDZ4PnTp1Kii+cQQShQ+CE5Z33nnHq8WlCCRulbzbiJ2DdBB3Gs1sS30kFzr++OO9GhdX4o4zCpPRQDIqZV4N640SyCR2LEcgybKbxL4kwLFkS/SJMULiGTKGdunSxf3+978vympbiSiValMlbKohkDbOTP3GjdpCM+z55QgkGyfE/UazJZNt1+J/o1lYw7EWJniyhEHEBceNI2uPJR1igyRMMpTm/aV7WxYBzdMti69qFwItiYAIZAbomjpQrirc01hMEfdkqf9J2x66X4lAZmAMEcjsQMygJhQvElxAFFAyosXc6iAZtkAt5z756aefOjZjIHlJXVitDVm4sEKGIU54GVjGx1IEstRRBhaLhvKYxIXV3HZZlFdyYUXpwl30F7/4hX/XQILJvIrah6LD72Q3DUvWMZA/+tGPfHIkYk+JcyxHiMjkSQZeFC7LToprajQLK+2FzOCaS2IglE08NUhSFmbYLTdkQwKZ1I7lCGRS+1IHbtoWw4odwhKNgYxzWa70VUyCTSUX1rhxZu7WbCKwqUOMchICmcUxHmHCINR3knCVIpAWDsLmBpsjuP9Gk3ZVwlCftz4CIpCtj7meKASyQkAEMiWSLGLIlkfa8KFDh7rll19+iRpx5yI+xeIjbcFQ6dFxO/CV7tHn/0VAE1M+RgJHRBDrhqteHHkxhf7II48sxMIZoUHFih6BE5esKmkSHTZrIH+1xkBCvFBBIGQQOZJ0UEoRSNTOuARa5rFAvCZupriXJkluwvEW5kZY7txFiCmknbMGwZxFdfTcRhsd5mZPnFsWMZAs3jmihbZCClHYShHIkCCEi/1SLqyPPPKId4UlXhYccPtkUyDJER701+qtxo7lCGRS+86dO9e7VkazlRopZvxCjENF174XcUl0IHXYF0LKmOaM0yTYJE2iE44zG6tGuEM8WiMGMiTXeDPEEchwHLGZy/eR6/ie6giPfMwDpVqheTrf9lHrhEA5BEQgU46PuCyS0SrtfEh2nnFdhXSyAIoWc59jQQkZZfFFGnLczFSqQ0ATU3V4tdTVqBoQQRbELPZZBHIwPMUWvfw/PIbBCGT0iITwGI+Q7CQ5xoNjdOycw1oJJCoH6hhu5+Z+V4lAQqhY5FvsmB3jgYJKPJwlCUpyvEJ4JEE5AmkeDqhSKJy8b1AgORszPGwdAkL22gkTJnjSlwWBxI2ShDa4sVrfShFI6zMbZXbESkj0+L+5iJp7Jm6vlnXVXHOnTp2ayJXV7F6NHSsRyCT2tURRqKWc3Thw4EBfLfZBdef7YZlyGSsUsyGu1NGjacjkikusZS7Gdii+SbCpZpyRjIZxzlms5j3TmgQyqQJprqth1tVp06b5rObE+Np5mS31jlO9tSOgebp27HSnEGhrBEQgU1jAjghgkcbET2KNuMLihx1oFo3lrpMLawpjRG7VxJQdlmlrYsHOAnf27NmFQ+NZ9M6cOdPHGkLIcGO0hBdGIEmSQrwicXsci0NMHYlYyKjKItrODgzPe6Q+rocsWUIZDmkPz9KrlUDiAsjGjilrhkspBRKXUzKq0ldcLnH/+9Of/uTee+8974YLmbbsoZUOeB8+fLgn4fSFUiqJDu8aVCP6aIQTTFDuiFvs3r27GzRokG8LeKJWktwLEsZPIzC1ZmElKQ5ZceNc88MkOkb6eX54BmgcgaTP5roKDrhS2iZEuHlQyZXV7F6NHcsRyKT2tbN+UcMYx4wF4uTxTEElRn1mXLBhEp6naMQobkwT/gAxItlTNdgkHWc8E/WcccExLNFYYXDB/Zi4Svq06667ejd1Njv5PtTiwhrGQPKdIcYU9bZcDKS5rkbPkg0xlytr2jd4y92vebrlsFXNQqClERCBTIGwueehFMadcRdWbQsyFgu4rX3rW99a4skikCmMIQKZHXgtUBOLTRa6KEok0mAB3bdvX6++DBkypChbon1XUD04SxCCwT3E9OGaRsZjIxBhU3FZ417cxSELqA8k8oCc4uZnpVYCyUHloWpYiUCyiOZ6ssCiNIFB7969/QIbdY7zAcOCIogrKUSIdwu/47XAxlS0z+WS6MThxLMhrLSD/uNSDGHEbRIyiZqFaydKINllayWQ9Cea/CiqQHKsBRsKjAVcDvkXZsuMurC+8cYbngBTQqWa39k8QJFEkcNNl8Q4trEQHcZWbzV2LEcgq7Evaimk2sYypIuNDsYCeKAQ27Eu4bEfjGn6x+YLKiVjGhINWaOOUip+OWySjLNKSZqiuIThFrUSyGid0e9vdBwxzsePH++PiQnVeauHY1Jw9cXecmVtgZd6BlWKQGYAoqoQAm2EgAhkCuBtkVUqQUhYtZFN/hbnDsTfRSBTGEMEMjvw2rimcuSljZuW+PHlFtGJK9GFuUWg0e1rBJIzV0N37TiDgEWpjLS5NaAalgsERCBzYQY1QgjUhIAIZE2w6aa8I6CJKe8WKt0+Ecj6tV2ztFwE8v8tLQLZLKM++35qns4eU9UoBFoLARHI1kJaz2lVBDQxtSrcmT5MBDJTOFVZCyAgAikC2QLDqumq1DzddCZXhxsIARHIBjKmuvL/CGhiqt/RIAJZv7ZrlpY3OoFsFjuqn22LgObptsVfTxcCaRAQgUyDnu7NLQKamHJrGjVMCAgBISAEhIDOa9YYEAJ1jIAIZB0bT00vjYAIpEaHEBACQkAICIH8IqB5Or+2UcuEQCUERCArIaTP6xIBTUx1aTY1WggIASEgBJoEAc3TTWJodbMhERCBbEizqlOamDQGhIAQEAJCQAjkFwHN0/m1jVomBCohIAJZCSF9XpcIaGKqS7Op0UJACAgBIdAkCGiebhJDq5sNiYAIZEOaVZ3SxKQxIASEgBAQAkIgvwhons6vbdQyIVAJARHISgjp87pEQBNTXZpNjRYCQkAICIEmQUDzdJMYWt1sSAREIBvSrOqUJiaNASEgBOoFgTfffNPtscce7sMPP3Q33HCDe+SRR9z48ePdiBEj3LXXXutWXnnleumK2ikEEiOgeToxVLpQCOQOARHI3JlEDcoCAU1MWaCoOoSAEGgNBEQgWwNlPSNvCGiezptF1B4hkBwBEcjkWOnKOkJAE1MdGUtNFQJNjkCUQD7++ONu7NixUiCbfFw0evc1Tze6hdW/RkZABLKRrdvEfdPE1MTGV9eFQJ0h8NFHH7n999/fvfrqq+6mm25yb7zxhttnn33cvvvu6y6//PI6642aKwSSIaB5OhlOukoI5BEBEcg8WkVtSo2AJqbUEKqCnCDw2GOPuVGjRnly0bdvX3fbbbe59dZbr6h1EI6RI0e6J554wm2xxRbujjvucOuss46/5ptvvnGzZs1yF198sXvmmWccahcxdZtvvrk75JBD/H1LL720O+KII9wVV1xRtteHH354gdAsXrzY3XXXXW7SpEk+Zo/fN9lkE3f00Ue7vffe29dpxfpw2GGHuT59+rjzzjvP37Piiiu67bbbzsf7bbbZZoXrTZFbe+21l4gBfPHFFz25oi/0c/fddy/ct2jRIjdx4kR37733updeesl98sknboMNNnA777yzGzNmjOvWrVtR/5L0udZnPPzww+7AAw/0z/vtb3/rBg4cWHg2bd9vv/3c119/7a6++mo3YMAAB7bPPfecmzJlinv77bc9eTz44IPdCSeckJORqGYIgWwR0DydLZ6qTQi0JgIikK2Jtp7VaghoYmo1qPWgFkbAyBcJVigQDhKuhAWSc8ABB3jCFBJIyCOE6vTTT3ddunRxgwYN8qTtrbfeco8++qi/ns9wl6Te559/3lf7+eefu/vuu8//f+jQoW755Zf3/99000096fziiy/8fZBS6hs8eLD/OWfOHE+CjjnmGE8Sl1tuOX+f9aFfv37u6aefdssss4wnTRClBx54wHXs2NFdcMEFnsxSShFI+nPiiSf6uikhuXvllVc8YXv22Wfdlltu6TbeeGP35ZdfelLNM7fZZht33XXXua5duxagMwK55557ujXXXLMI03nz5rkZM2bU/AzaSjtpL/WDL8T9X//6l8cQknvaaae5cePGOd5X55xzjvvLX/7iyebHH3/s7zn++OOLCHILDzVVLwRaFQHN060Ktx4mBDJFQAQyUzhVWV4Q0MSUF0uoHWkRMPKFkrZw4UJP1s4///xCtRAVVD/UwM8++8yrbKZAQpxQ61ZbbTVPTKjDiilk/O3GG2/011gxAmckzdRM+xwV9KijjnI9evTwimSvXr38R5DcQw891E2fPt2TJwhaSCBRUfmc9nfo0MGro7fccosnURA+2rHWWmuVJJDWZuoJCST1oNRdeeWVRaSMayC7EOTLLrvME0iUPytGIKMqI5/TRpRR+6yWZ4DHQQcd5BVgw+PCCy/0bUQVNVKZdozofiFQjwhonq5Hq6nNQuC/CIhAaiQ0JAKamBrSrE3ZKSOQuHri8vj666970rXGGmt4PHDVxGUU11AIY0j6ICgXXXSRVyejrpDlSGK5z/7zn/94UjRt2jRPHnG1DIuR1u7du/sjKVZdddWCArnKKqu4m2++2fXs2bNwCyohZPTWW2/17qqoq3EKJM/FBRbVkjohdkbu3n33Xe8CasdgRF18jQxC4kIcqiGQtT7DSC+EGUXxzDPPdO3atXPXX3+96927d1OOaXVaCNgClI0ZFSEgBOoPARHI+rOZWpwAARHIBCDpkrpAwAjkjjvu6JW+CRMmePKx/fbb+/aj2p188snu7LPP9mQxJJBhBz/44AOfnAU3VUge9f7tb3/zyl8YM8k95Qjk/Pnz3V577eVjHG+//fYil1DutYQwuIDSNlxqrQ877LCDj7P838RTaB79IYnMqaee6l1j4wgkquexxx7rXT3JUko9ccohiiNkj34SL8m1uLFSZxoCGWJZzTNCV1ZUXtyDL7nkEt9fFSHQzAhonm5m66vv9Y6ACGS9W1Dtj0VAE5MGRqMgEBJIVDZcUlHpIFqm3kGOIFa4h0YJ5P333+9J50MPPVSAhFi8DTfc0P3973/3yXaqIZDWHuIYUUX5GS0QNoibETy7h6QwxARGy5133un7ZEl6ogQS9RGlEwKGqkodUQJJ3OBZZ53lyTUE0gouuiuttJJPupOWQNbyDNrx/vvv+/jMu+++29uPPrRv375Rhqj6IQRqQkDzdE2w6SYhkAsERCBzYQY1ImsENDFljajqaysEQgJJohncR0l+g3soxAT31eHDh3s3VUuuY4QQN9PRo0d7krfbbrs5FEBUTNxf33vvvSWutz6WUyDDrLCVMIkSSFxQ47KKViKQV111lVftrrnmGt+HqOupubdyBAakFhxIpIMra6dOnQrxjGkIZK3PACMyzpI4B1V2o4028gRy6623rgSfPhcCDY2A5umGNq861+AIiEA2uIGbtXuamJrV8o3X75BAEnNIPB/JYiCQL7/8sjvllFO86kbMYUggV199dR8zSFzh5MmTPfEMS60xkObCuu666/qkNMQ1VirRPkSvR02EFMa5sJ500klemdx2223dueee65ZddtklCCSZXEmOwzEi4ELfw5JFDGStz7DEQg8++KDbddddvQpJXyDFxHKqCIFmRUDzdLNaXv1uBAREIBvBiurDEghoYtKgaBQEouTLfifz6ty5c72SCGlCIQsJJElbUCU5VoPPUeTCQtZWSGWYtdU+L0cuOYaCelHTUPw4T7JSsTZzriNJdPhpxdxw//CHP3giTHZSez5EsHPnzv5oDp5FvCYlqkBGFcywPZb0hxjKNApkLc8Ij1HhWA5iVI877jh/1mN4hEcl/PS5EGhEBDRPN6JV66dP0Vj8+ml5rlq61FL/PW9a2bByZRY1pmYENDHVDJ1uzBkCUQKJojVq1ChPHBctWuRVRtxCo6QvVCCJj+RICpswSS5DvCSuleG5kUkIJNegPEJghwwZ4mMRIXlWUNpQDDl3ks8gfdYHjiGhHfzjjMjwGI/+/ft7tZT4TOsLZzt+9dVXXpkslz3V1EFTRTlehLJ48WJ/viQxoLj9piGQtTzDXFfDrKvEYqKWklFXrqw5+7KpOa2KgObpVoVbD4sgoPGXbkhIgUyHn+7OKQJ6MeTUMGpW1QjEuX+iXp1xxhlu/fXXL6iLcaohMYgQPcgTCiRkjsQ5s2fPdoMGDfIkBiUxqlBWOgeSLKQkspk0aZLr2LGjd8nEHRP3VpLnUCB9Y8aM8aTV+sDfUQRxt+UIC44g4bOuXbt6t9ytttrK32vPf/LJJ93QoUM9YYWQWokqkKiixBii7FE3fcPVdc6cOT4r7LBhw9zUqVP9T9yAIW48d+bMmT6ZjWWLDY0TPQey2meUOhOTZ9hZkDvttJNcWav+RuiGRkFA83SjWLI++6Hxl85uIpDp8NPdOUVAL4acGkbNqhqBOAJpatiAAQN8YpkVVlgh9ugNFL4ZM2b42EHIGAXiRkbQkSNHekUOIgpBQxWzUolAch3qHm6hkDGOBYFgkdF14MCBXoEkSYwpntaHwYMH+2Q+1h7I54gRIzzRxJU2+vwFCxa4Sy+91Lc1LHHnN6LGorRyRibtpy0QRtoCmeToEVRZyCJxo6ijkM1x48Z5l9ioO1OUQPL8pM+AkIMpmXJxyQUjlFUrkEvch2fNmiVX1qq/EbqhURDQPN0olqzPfmj8pbObCGQ6/HR3ThHQiyGnhlGzmhKBSkl0mhIUdVoINDkCmqebfAC0cfc1/tIZQAQyHX66O6cI6MWQU8OoWU2JgAhkU5pdnRYCZRHQPK0B0pYIaPylQ18EMh1+ujunCOjFkFPDqFlNiYAIZFOaXZ0WAiKQGgO5RUDrxHSmEYFMh5/uzikCejHk1DBqVlMiIALZlGZXp4WACKTGQG4R0DoxnWlEINPhp7tzioBeDDk1jJolBISAEBACQsA5n7hKx8dpKLQVAhp/6ZAXgUyHn+7OKQJ6MeTUMGqWEBACQkAICAERSI2BNkZA68R0BhCBTIef7s4pAnox5NQwapYQEAJCQAgIARFIjYE2RkDrxHQGEIFMh5/uzikCejHk1DBqlhAQAkJACAgBEUiNgTZGQOvEdAYQgUyHn+7OKQJ6MeTUMGqWEBACQkAICAERSI2BNkZA68R0BhCBTIef7s4pAnox5NQwapYQEAJCQAgIARFIjYE2RkDrxHQGEIFMh5/uzikCejHk1DBqlhAQAkJACAgBEUiNgTZGQOvEdAYQgUyHn+7OKQJ6MeTUMGqWEBACQkAICAERSI2BNkZA68R0BhCBTIef7s4pAnox5NQwapYQEAJCQAgIARFIjYE2RkDrxHQGEIFMh5/uzikCejHk1DBqlhAQAkJACAgBEUiNgTZGQOvEdAYQgUyHn+7OKQJ6MeTUMGqWEBACQkAICAERSI2BNkZA68R0BhCBTIef7s4pAnox5NQwapYQEAJCQAgIARFIjYE2RkDrxHQGKCKQ6arS3UJACAgBISAEhIAQEAJCQAgIASHQBAgstVQTdFJdFAJCQAgIASEgBISAEBACQkAICIEMEPg/MyRwW/X6MCkAAAAASUVORK5CYII=;" vertex="1" parent="1">
          <mxGeometry x="860" y="570" width="770" height="627.84" as="geometry" />
        </mxCell>
        <mxCell id="JfUIkWPt-qQz9HvaRLv--7" style="edgeStyle=orthogonalEdgeStyle;rounded=0;orthogonalLoop=1;jettySize=auto;html=1;exitX=1;exitY=0.25;exitDx=0;exitDy=0;entryX=0;entryY=0.25;entryDx=0;entryDy=0;" edge="1" parent="1" source="JfUIkWPt-qQz9HvaRLv--1" target="JfUIkWPt-qQz9HvaRLv--3">
          <mxGeometry relative="1" as="geometry">
            <Array as="points">
              <mxPoint x="1280" y="740" />
              <mxPoint x="1280" y="800" />
            </Array>
          </mxGeometry>
        </mxCell>
        <mxCell id="JfUIkWPt-qQz9HvaRLv--1" value="&lt;span style=&quot;font-size: 14px;&quot;&gt;&lt;br&gt;Вычисление среднего количества бронирований&lt;/span&gt;" style="html=1;align=center;verticalAlign=top;rounded=1;absoluteArcSize=1;arcSize=10;dashed=0;whiteSpace=wrap;" vertex="1" parent="1">
          <mxGeometry x="980" y="720" width="180" height="80" as="geometry" />
        </mxCell>
        <mxCell id="JfUIkWPt-qQz9HvaRLv--8" style="edgeStyle=orthogonalEdgeStyle;rounded=0;orthogonalLoop=1;jettySize=auto;html=1;exitX=1;exitY=0.25;exitDx=0;exitDy=0;entryX=0;entryY=0.75;entryDx=0;entryDy=0;" edge="1" parent="1" source="JfUIkWPt-qQz9HvaRLv--2" target="JfUIkWPt-qQz9HvaRLv--3">
          <mxGeometry relative="1" as="geometry">
            <Array as="points">
              <mxPoint x="1300" y="890" />
              <mxPoint x="1300" y="840" />
            </Array>
          </mxGeometry>
        </mxCell>
        <mxCell id="JfUIkWPt-qQz9HvaRLv--18" style="edgeStyle=orthogonalEdgeStyle;rounded=0;orthogonalLoop=1;jettySize=auto;html=1;exitX=0.25;exitY=1;exitDx=0;exitDy=0;strokeColor=default;startArrow=classicThin;startFill=1;endArrow=none;endFill=0;" edge="1" parent="1" source="JfUIkWPt-qQz9HvaRLv--2">
          <mxGeometry relative="1" as="geometry">
            <mxPoint x="940" y="1050" as="targetPoint" />
          </mxGeometry>
        </mxCell>
        <mxCell id="JfUIkWPt-qQz9HvaRLv--2" value="&lt;span style=&quot;font-size: 14px;&quot;&gt;Вычисление среднего количества заказа дополнительных услуг&lt;/span&gt;" style="html=1;align=center;verticalAlign=top;rounded=1;absoluteArcSize=1;arcSize=10;dashed=0;whiteSpace=wrap;" vertex="1" parent="1">
          <mxGeometry x="980" y="870" width="180" height="80" as="geometry" />
        </mxCell>
        <mxCell id="JfUIkWPt-qQz9HvaRLv--13" style="edgeStyle=orthogonalEdgeStyle;rounded=0;orthogonalLoop=1;jettySize=auto;html=1;exitX=1;exitY=0.5;exitDx=0;exitDy=0;" edge="1" parent="1" source="JfUIkWPt-qQz9HvaRLv--3">
          <mxGeometry relative="1" as="geometry">
            <mxPoint x="1621.7391304347825" y="820.0000000000001" as="targetPoint" />
          </mxGeometry>
        </mxCell>
        <mxCell id="JfUIkWPt-qQz9HvaRLv--20" style="edgeStyle=orthogonalEdgeStyle;rounded=0;orthogonalLoop=1;jettySize=auto;html=1;exitX=0.25;exitY=1;exitDx=0;exitDy=0;startArrow=classic;startFill=1;endArrow=none;endFill=0;" edge="1" parent="1" source="JfUIkWPt-qQz9HvaRLv--3">
          <mxGeometry relative="1" as="geometry">
            <mxPoint x="1020" y="1000" as="targetPoint" />
            <Array as="points">
              <mxPoint x="1365" y="1000" />
            </Array>
          </mxGeometry>
        </mxCell>
        <mxCell id="JfUIkWPt-qQz9HvaRLv--3" value="&lt;span style=&quot;font-size: 14px;&quot;&gt;&lt;br&gt;Обработка данных&lt;/span&gt;" style="html=1;align=center;verticalAlign=top;rounded=1;absoluteArcSize=1;arcSize=10;dashed=0;whiteSpace=wrap;" vertex="1" parent="1">
          <mxGeometry x="1320" y="780" width="180" height="80" as="geometry" />
        </mxCell>
        <mxCell id="JfUIkWPt-qQz9HvaRLv--4" value="" style="endArrow=classic;html=1;rounded=0;entryX=0;entryY=0.75;entryDx=0;entryDy=0;" edge="1" parent="1" target="JfUIkWPt-qQz9HvaRLv--2">
          <mxGeometry width="50" height="50" relative="1" as="geometry">
            <mxPoint x="870" y="720" as="sourcePoint" />
            <mxPoint x="1400" y="720" as="targetPoint" />
            <Array as="points">
              <mxPoint x="870" y="930" />
            </Array>
          </mxGeometry>
        </mxCell>
        <mxCell id="JfUIkWPt-qQz9HvaRLv--5" value="" style="endArrow=classic;html=1;rounded=0;entryX=0;entryY=0.25;entryDx=0;entryDy=0;" edge="1" parent="1" target="JfUIkWPt-qQz9HvaRLv--1">
          <mxGeometry width="50" height="50" relative="1" as="geometry">
            <mxPoint x="870" y="740" as="sourcePoint" />
            <mxPoint x="1400" y="720" as="targetPoint" />
          </mxGeometry>
        </mxCell>
        <mxCell id="JfUIkWPt-qQz9HvaRLv--6" value="&lt;font style=&quot;font-size: 10px;&quot;&gt;Данные о&lt;br&gt;бронированиях&lt;br&gt;&lt;/font&gt;" style="text;html=1;strokeColor=none;fillColor=none;align=center;verticalAlign=middle;whiteSpace=wrap;rounded=0;rotation=0;" vertex="1" parent="1">
          <mxGeometry x="870" y="730" width="110" height="20" as="geometry" />
        </mxCell>
        <mxCell id="JfUIkWPt-qQz9HvaRLv--10" value="&lt;font style=&quot;font-size: 10px;&quot;&gt;Среднее количество&lt;br&gt;бронирований&lt;br&gt;&lt;/font&gt;" style="text;html=1;strokeColor=none;fillColor=none;align=center;verticalAlign=middle;whiteSpace=wrap;rounded=0;rotation=0;" vertex="1" parent="1">
          <mxGeometry x="1160" y="730" width="110" height="20" as="geometry" />
        </mxCell>
        <mxCell id="JfUIkWPt-qQz9HvaRLv--11" value="&lt;font style=&quot;font-size: 10px;&quot;&gt;Среднее количество&lt;br&gt;дополнительных услуг каждого типа&lt;br&gt;&lt;/font&gt;" style="text;html=1;strokeColor=none;fillColor=none;align=center;verticalAlign=middle;whiteSpace=wrap;rounded=0;rotation=0;" vertex="1" parent="1">
          <mxGeometry x="1170" y="870" width="110" height="20" as="geometry" />
        </mxCell>
        <mxCell id="JfUIkWPt-qQz9HvaRLv--14" value="&lt;font style=&quot;font-size: 10px;&quot;&gt;Рекомендации по заказу расходных материалов&lt;br&gt;&lt;/font&gt;" style="text;html=1;strokeColor=none;fillColor=none;align=center;verticalAlign=middle;whiteSpace=wrap;rounded=0;rotation=0;" vertex="1" parent="1">
          <mxGeometry x="1500" y="800" width="110" height="20" as="geometry" />
        </mxCell>
        <mxCell id="JfUIkWPt-qQz9HvaRLv--16" value="" style="endArrow=classic;html=1;rounded=0;entryX=0.25;entryY=1;entryDx=0;entryDy=0;" edge="1" parent="1" target="JfUIkWPt-qQz9HvaRLv--1">
          <mxGeometry width="50" height="50" relative="1" as="geometry">
            <mxPoint x="940" y="1090" as="sourcePoint" />
            <mxPoint x="1010" y="1090" as="targetPoint" />
            <Array as="points">
              <mxPoint x="940" y="830" />
              <mxPoint x="1025" y="830" />
            </Array>
          </mxGeometry>
        </mxCell>
        <mxCell id="JfUIkWPt-qQz9HvaRLv--21" value="&lt;font style=&quot;font-size: 10px;&quot;&gt;Система&lt;br&gt;&lt;/font&gt;" style="text;html=1;strokeColor=none;fillColor=none;align=center;verticalAlign=middle;whiteSpace=wrap;rounded=0;rotation=0;" vertex="1" parent="1">
          <mxGeometry x="1170" y="980" width="110" height="20" as="geometry" />
        </mxCell>
        <mxCell id="JfUIkWPt-qQz9HvaRLv--23" value="41" style="text;html=1;strokeColor=none;fillColor=none;align=center;verticalAlign=middle;whiteSpace=wrap;rounded=0;" vertex="1" parent="1">
          <mxGeometry x="1140" y="780" width="10" height="20" as="geometry" />
        </mxCell>
        <mxCell id="JfUIkWPt-qQz9HvaRLv--24" value="43" style="text;html=1;strokeColor=none;fillColor=none;align=center;verticalAlign=middle;whiteSpace=wrap;rounded=0;" vertex="1" parent="1">
          <mxGeometry x="1480" y="840" width="10" height="20" as="geometry" />
        </mxCell>
        <mxCell id="JfUIkWPt-qQz9HvaRLv--25" value="42" style="text;html=1;strokeColor=none;fillColor=none;align=center;verticalAlign=middle;whiteSpace=wrap;rounded=0;" vertex="1" parent="1">
          <mxGeometry x="1140" y="930" width="10" height="20" as="geometry" />
        </mxCell>
      </root>
    </mxGraphModel>
  </diagram>
  <diagram id="30CSTh-y9SVbLgZfz-_A" name="Страница — 2">
    <mxGraphModel dx="5413" dy="2800" grid="1" gridSize="10" guides="1" tooltips="1" connect="1" arrows="1" fold="1" page="1" pageScale="1" pageWidth="3300" pageHeight="2339" math="0" shadow="0">
      <root>
        <mxCell id="0" />
        <mxCell id="1" parent="0" />
      </root>
    </mxGraphModel>
  </diagram>
</mxfile>
